<svg width="512" height="512" viewBox="0 0 512 512" fill="none" xmlns="http://www.w3.org/2000/svg">
<path d="M257 90C166.019 90 90 164.019 90 255C90 345.981 166.019 422 257 422C347.981 422 422 345.981 422 255C422 164.019 347.981 90 257 90ZM287 330H272V345C272 364.773 242 364.854 242 345V330H197C177.227 330 177.146 300 197 300H212V210H197C177.227 210 177.146 180 197 180H242V165C242 145.227 272 145.146 272 165V180H287C325.501 180 346.664 225.761 320.296 255C346.664 284.239 325.501 330 287 330Z" fill="#f4ca96"/>
<path d="M287 270H242V300H287C306.828 300 306.828 270 287 270Z" fill="#f4ca96"/>
<path d="M287 210H242V240H287C306.828 240 306.828 210 287 210Z" fill="#f4ca96"/>
<path d="M75 60C50.186 60 30 80.186 30 105C30 129.814 50.186 150 75 150C99.814 150 120 129.814 120 105C120 80.186 99.814 60 75 60Z" fill="#f4ca96"/>
<path d="M257 0C206.849 0 156.744 14.949 115.53 42.081C124.316 47.761 131.851 55.159 137.606 63.891C172.736 42.209 214.964 29.8 257 29.8C381.072 29.8 482.2 130.928 482.2 255C482.2 283.017 476.461 312.345 466.354 338.006C476.02 342.133 484.509 348.348 491.593 355.914C504.881 324.808 512 289.318 512 255C512 114.39 397.61 0 257 0Z" fill="#f4ca96"/>
<path d="M374.394 448.109C339.264 469.791 299.036 482.2 257 482.2C132.928 482.2 29.8 379.072 29.8 255C29.8 226.985 35.541 199.655 45.648 173.994C35.982 169.867 27.491 163.652 20.407 156.086C7.119 187.192 0 222.682 0 257C0 397.61 116.39 512 257 512C307.151 512 355.256 497.051 396.47 469.919C387.684 464.239 380.149 456.841 374.394 448.109Z" fill="#f4ca96"/>
<path d="M437 362C412.186 362 392 382.186 392 407C392 431.814 412.186 452 437 452C461.814 452 482 431.814 482 407C482 382.186 461.814 362 437 362Z" fill="#f4ca96"/>
</svg>
