<svg width="512" height="512" viewBox="0 0 512 512" fill="none" xmlns="http://www.w3.org/2000/svg">
<g clip-path="url(#clip0)">
<path d="M256 341.205C247.531 341.205 239.061 339.179 231.339 335.147L5.73868 217.451C0.512009 214.72 -1.51466 208.277 1.21601 203.051C3.94668 197.824 10.3893 195.84 15.616 198.528L241.216 316.224C250.475 321.088 261.547 321.067 270.805 316.224L496.405 198.507C501.632 195.797 508.075 197.803 510.805 203.029C513.536 208.256 511.509 214.699 506.283 217.429L280.661 335.147C272.939 339.179 264.469 341.205 256 341.205V341.205Z" fill="#f4ca96"/>
<path d="M469.333 490.667H42.6667C19.136 490.667 0 471.531 0 448V179.413C0 163.435 8.81067 148.949 23.0187 141.568L48.384 128.341C53.6107 125.653 60.0747 127.637 62.784 132.885C65.5147 138.112 63.4667 144.555 58.2613 147.264L32.8747 160.491C25.7493 164.203 21.3333 171.456 21.3333 179.413V448C21.3333 459.755 30.8907 469.333 42.6667 469.333H469.333C481.109 469.333 490.667 459.755 490.667 448V179.413C490.667 171.435 486.251 164.203 479.147 160.512L453.739 147.264C448.533 144.555 446.485 138.091 449.216 132.885C451.947 127.637 458.411 125.653 463.616 128.363L489.003 141.589C503.189 148.949 512 163.456 512 179.413V448C512 471.531 492.864 490.667 469.333 490.667V490.667Z" fill="#f4ca96"/>
<path d="M256 224C226.581 224 202.667 200.064 202.667 170.667C202.667 141.269 226.581 117.333 256 117.333C285.419 117.333 309.333 141.269 309.333 170.667C309.333 200.064 285.419 224 256 224ZM256 138.667C238.357 138.667 224 153.024 224 170.667C224 188.309 238.357 202.667 256 202.667C273.643 202.667 288 188.309 288 170.667C288 153.024 273.643 138.667 256 138.667Z" fill="#f4ca96"/>
<path d="M458.667 240.853C452.779 240.853 448 236.075 448 230.187V64C448 52.2453 438.443 42.6667 426.667 42.6667H85.3333C73.5573 42.6667 64 52.2453 64 64V230.187C64 236.075 59.2213 240.853 53.3333 240.853C47.4453 240.853 42.6667 236.075 42.6667 230.187V64C42.6667 40.4693 61.8027 21.3333 85.3333 21.3333H426.667C450.197 21.3333 469.333 40.4693 469.333 64V230.187C469.333 236.075 464.555 240.853 458.667 240.853Z" fill="#f4ca96"/>
</g>
<defs>
<clipPath id="clip0">
<rect width="512" height="512" fill="white"/>
</clipPath>
</defs>
</svg>
