<svg width="512" height="512" viewBox="0 0 512 512" fill="none" xmlns="http://www.w3.org/2000/svg">
<g clip-path="url(#clip0)">
<path d="M473.488 138.918L473.472 138.519C473.249 133.601 473.101 128.398 473.011 122.609C472.593 94.3786 450.152 71.0271 421.918 69.449C363.05 66.1639 317.512 46.9686 278.601 9.04294L278.269 8.72654C265.578 -2.91015 246.434 -2.91015 233.738 8.72654L233.406 9.04294C194.496 46.9686 148.957 66.1639 90.0903 69.4529C61.8599 71.0271 39.4147 94.3786 38.9967 122.613C38.9108 128.363 38.7584 133.566 38.5358 138.519L38.5123 139.445C37.3678 199.472 35.9459 274.179 60.938 341.987C74.6802 379.276 95.4926 411.69 122.793 438.335C153.887 468.678 194.613 492.768 243.84 509.932C245.441 510.491 247.105 510.944 248.801 511.284C251.191 511.76 253.598 511.999 256.004 511.999C258.41 511.999 260.82 511.76 263.207 511.284C264.902 510.944 266.578 510.487 268.187 509.924C317.355 492.729 358.039 468.628 389.105 438.288C416.394 411.636 437.207 379.214 450.96 341.917C476.046 273.905 474.628 199.058 473.488 138.918ZM422.773 331.523C396.414 402.991 342.605 452.073 258.273 481.565C257.973 481.667 257.652 481.756 257.32 481.823C256.449 481.995 255.563 481.995 254.68 481.819C254.352 481.753 254.031 481.667 253.734 481.565C169.313 452.128 115.469 403.073 89.1294 331.601C66.0943 269.097 67.399 200.519 68.5513 140.019L68.5591 139.683C68.7935 134.484 68.9497 129.039 69.0357 123.054C69.2232 110.519 79.2075 100.148 91.7661 99.4489C125.078 97.5896 154.344 91.1521 181.235 79.7693C208.09 68.4022 231.941 52.3788 254.145 30.7851C255.273 29.8319 256.738 29.828 257.863 30.7851C280.07 52.3788 303.922 68.4022 330.773 79.7693C357.664 91.1521 386.929 97.5896 420.246 99.4489C432.804 100.148 442.789 110.519 442.972 123.058C443.062 129.074 443.218 134.519 443.453 139.683C444.601 200.253 445.874 268.886 422.773 331.523Z" fill="#f4ca96"/>
<path d="M255.997 128.41C185.637 128.41 128.399 185.652 128.399 256.008C128.399 326.367 185.637 383.609 255.997 383.609C326.352 383.609 383.594 326.367 383.594 256.008C383.594 185.652 326.352 128.41 255.997 128.41ZM255.997 353.562C202.204 353.562 158.442 309.801 158.442 256.008C158.442 202.215 202.204 158.453 255.997 158.453C309.786 158.453 353.547 202.215 353.547 256.008C353.547 309.801 309.786 353.562 255.997 353.562Z" fill="#f4ca96"/>
<path d="M292.669 216.395L233.403 275.66L217.317 259.574C211.45 253.707 201.938 253.707 196.071 259.574C190.208 265.441 190.208 274.953 196.071 280.816L222.782 307.527C225.715 310.461 229.559 311.926 233.403 311.926C237.247 311.926 241.09 310.461 244.024 307.527L313.915 237.637C319.778 231.77 319.778 222.258 313.915 216.395C308.047 210.523 298.536 210.523 292.669 216.395Z" fill="#f4ca96"/>
</g>
<defs>
<clipPath id="clip0">
<rect width="512" height="512" fill="white"/>
</clipPath>
</defs>
</svg>
