<svg width="512" height="384" viewBox="0 0 512 384" fill="none" xmlns="http://www.w3.org/2000/svg">
<path d="M469.333 0H42.667C19.135 0 0 19.135 0 42.667V341.334C0 364.865 19.135 384 42.667 384H469.334C492.865 384 512 364.865 512 341.333V42.667C512 19.135 492.865 0 469.333 0ZM42.667 21.333H469.334C470.906 21.333 472.291 21.906 473.766 22.23C436.827 56.037 314.343 168.089 271.48 206.708C268.126 209.729 262.72 213.333 256.001 213.333C249.282 213.333 243.876 209.729 240.511 206.698C197.652 168.085 75.161 56.027 38.228 22.232C39.706 21.908 41.094 21.333 42.667 21.333ZM21.333 341.333V42.667C21.333 40.577 21.963 38.681 22.527 36.771C50.799 62.647 136.263 140.831 191.679 191.224C136.443 238.671 50.957 319.719 22.46 346.893C21.957 345.079 21.333 343.305 21.333 341.333ZM469.333 362.667H42.667C40.963 362.667 39.448 362.073 37.857 361.693C67.304 333.621 153.334 252.107 207.599 205.684C214.673 212.101 221.135 217.952 226.229 222.542C235.021 230.48 245.312 234.667 256 234.667C266.688 234.667 276.979 230.479 285.76 222.552C290.856 217.96 297.323 212.104 304.401 205.684C358.669 252.102 444.687 333.61 474.143 361.693C472.552 362.073 471.039 362.667 469.333 362.667ZM490.667 341.333C490.667 343.304 490.043 345.079 489.541 346.893C461.033 319.705 375.557 238.666 320.322 191.225C375.74 140.832 461.191 62.655 489.473 36.769C490.037 38.679 490.667 40.576 490.667 42.666V341.333V341.333Z" fill="#F4CA96"/>
</svg>
