<svg width="273" height="369" viewBox="0 0 273 369" fill="none" xmlns="http://www.w3.org/2000/svg">
<path d="M136.08 0C61.088 0 0.0800171 61.008 0.0800171 136C0.0800171 160.688 11.152 187.24 11.616 188.36C15.192 196.848 22.248 210.032 27.336 217.76L120.584 359.048C124.4 364.84 130.048 368.16 136.08 368.16C142.112 368.16 147.76 364.84 151.576 359.056L244.832 217.76C249.928 210.032 256.976 196.848 260.552 188.36C261.016 187.248 272.08 160.696 272.08 136C272.08 61.008 211.072 0 136.08 0ZM245.8 182.152C242.608 189.76 236.04 202.024 231.472 208.952L138.216 350.248C136.376 353.04 135.792 353.04 133.952 350.248L40.696 208.952C36.128 202.024 29.56 189.752 26.368 182.144C26.232 181.816 16.08 157.376 16.08 136C16.08 69.832 69.912 16 136.08 16C202.248 16 256.08 69.832 256.08 136C256.08 157.408 245.904 181.912 245.8 182.152Z" fill="#f4ca96"/>
<path d="M136.08 64.008C96.376 64.008 64.08 96.312 64.08 136.008C64.08 175.704 96.376 208.008 136.08 208.008C175.784 208.008 208.08 175.704 208.08 136.008C208.08 96.312 175.784 64.008 136.08 64.008ZM136.08 192.008C105.208 192.008 80.08 166.888 80.08 136.008C80.08 105.128 105.208 80.008 136.08 80.008C166.952 80.008 192.08 105.128 192.08 136.008C192.08 166.888 166.952 192.008 136.08 192.008Z" fill="#f4ca96"/>
</svg>
