<svg xmlns="http://www.w3.org/2000/svg" xmlns:xlink="http://www.w3.org/1999/xlink" viewBox="0 0 232.19202 272.75199"><defs><style>.cls-1{mask:url(#mask);}.cls-2{mix-blend-mode:multiply;fill:url(#Áåçûìÿííûé_ãðàäèåíò_7);}.cls-3{isolation:isolate;}.cls-29,.cls-30,.cls-4,.cls-41{fill:#42e8e0;}.cls-4{mix-blend-mode:lighten;}.cls-5{fill:#bcbeff;}.cls-33,.cls-6{fill:#fff;}.cls-7{fill:url(#Áåçûìÿííûé_ãðàäèåíò_3);}.cls-8{fill:#24126a;}.cls-9{opacity:0.51;}.cls-10{fill:#453c9e;}.cls-11{mask:url(#mask-2);}.cls-12{opacity:0.78;fill:url(#Áåçûìÿííûé_ãðàäèåíò_14);}.cls-13{fill:url(#Áåçûìÿííûé_ãðàäèåíò_3-2);}.cls-14{fill:url(#Áåçûìÿííûé_ãðàäèåíò_3-3);}.cls-15{fill:url(#Áåçûìÿííûé_ãðàäèåíò_24);}.cls-16{fill:#3f21d3;}.cls-17{fill:url(#Áåçûìÿííûé_ãðàäèåíò_24-2);}.cls-18{fill:url(#Áåçûìÿííûé_ãðàäèåíò_24-3);}.cls-19{fill:url(#Áåçûìÿííûé_ãðàäèåíò_24-4);}.cls-20{fill:url(#Áåçûìÿííûé_ãðàäèåíò_24-5);}.cls-21{fill:url(#Áåçûìÿííûé_ãðàäèåíò_3-4);}.cls-22{fill:url(#Áåçûìÿííûé_ãðàäèåíò_24-6);}.cls-23{fill:url(#Áåçûìÿííûé_ãðàäèåíò_3-5);}.cls-24{fill:url(#Áåçûìÿííûé_ãðàäèåíò_24-7);}.cls-25{fill:url(#Áåçûìÿííûé_ãðàäèåíò_3-6);}.cls-26{fill:url(#Áåçûìÿííûé_ãðàäèåíò_24-8);}.cls-27{fill:url(#Áåçûìÿííûé_ãðàäèåíò_3-7);}.cls-28{fill:url(#Áåçûìÿííûé_ãðàäèåíò_24-9);}.cls-30{opacity:0.3;}.cls-31{fill:url(#Áåçûìÿííûé_ãðàäèåíò_2);}.cls-32{fill:url(#Áåçûìÿííûé_ãðàäèåíò_3-8);}.cls-33,.cls-35,.cls-36,.cls-37,.cls-38,.cls-39,.cls-40,.cls-42,.cls-58{opacity:0.5;}.cls-34{fill:#0f054c;}.cls-35{fill:url(#Áåçûìÿííûé_ãðàäèåíò_254);}.cls-36{fill:url(#Áåçûìÿííûé_ãðàäèåíò_254-2);}.cls-37{fill:url(#Áåçûìÿííûé_ãðàäèåíò_254-3);}.cls-38{fill:url(#Áåçûìÿííûé_ãðàäèåíò_254-4);}.cls-39{fill:url(#Áåçûìÿííûé_ãðàäèåíò_254-5);}.cls-40{fill:url(#Áåçûìÿííûé_ãðàäèåíò_254-6);}.cls-41{opacity:0.8;}.cls-43,.cls-48,.cls-53{opacity:0.11;}.cls-44{fill:url(#Áåçûìÿííûé_ãðàäèåíò_143);}.cls-45{fill:url(#Áåçûìÿííûé_ãðàäèåíò_143-2);}.cls-46{fill:url(#Áåçûìÿííûé_ãðàäèåíò_143-3);}.cls-47{fill:url(#Áåçûìÿííûé_ãðàäèåíò_143-4);}.cls-48{fill:url(#Áåçûìÿííûé_ãðàäèåíò_143-5);}.cls-49{fill:url(#Áåçûìÿííûé_ãðàäèåíò_143-6);}.cls-50{fill:url(#Áåçûìÿííûé_ãðàäèåíò_143-7);}.cls-51{fill:url(#Áåçûìÿííûé_ãðàäèåíò_143-8);}.cls-52{fill:url(#Áåçûìÿííûé_ãðàäèåíò_143-9);}.cls-53{fill:url(#Áåçûìÿííûé_ãðàäèåíò_143-10);}.cls-54{fill:url(#Áåçûìÿííûé_ãðàäèåíò_143-11);}.cls-55{fill:url(#Áåçûìÿííûé_ãðàäèåíò_143-12);}.cls-56{fill:url(#Áåçûìÿííûé_ãðàäèåíò_143-13);}.cls-57{fill:url(#Áåçûìÿííûé_ãðàäèåíò_143-14);}.cls-58{fill:url(#Áåçûìÿííûé_ãðàäèåíò_143-15);}.cls-59{fill:url(#Áåçûìÿííûé_ãðàäèåíò_143-17);}.cls-60{fill:#180d5b;opacity:0.2;}.cls-61{fill:#160a5b;}.cls-62{fill:url(#Áåçûìÿííûé_ãðàäèåíò_143-18);}.cls-63{fill:url(#Áåçûìÿííûé_ãðàäèåíò_143-19);}.cls-64{fill:#f0f6ff;}.cls-65{fill:#fcd1c5;}.cls-66{fill:#4846a5;}.cls-67{fill:#aa8383;}.cls-68{fill:#c4ccd6;}.cls-69{fill:#e2b1a6;}.cls-70{fill:url(#Áåçûìÿííûé_ãðàäèåíò_143-20);}.cls-71{fill:#936d6d;}.cls-72{filter:url(#luminosity-noclip-2);}.cls-73{filter:url(#luminosity-noclip);}</style><filter id="luminosity-noclip" x="315.26209" y="-8417" width="59.9792" height="32766" filterUnits="userSpaceOnUse" color-interpolation-filters="sRGB"><feFlood flood-color="#fff" result="bg"/><feBlend in="SourceGraphic" in2="bg"/></filter><mask id="mask" x="315.26209" y="-8417" width="59.9792" height="32766" maskUnits="userSpaceOnUse"><g class="cls-73"/></mask><linearGradient id="Áåçûìÿííûé_ãðàäèåíò_7" x1="315.26209" y1="147.1379" x2="375.24129" y2="147.1379" gradientUnits="userSpaceOnUse"><stop offset="0"/><stop offset="0.04693" stop-color="#2f2f2f"/><stop offset="0.09815" stop-color="#5a5a5a"/><stop offset="0.15498" stop-color="#828282"/><stop offset="0.21611" stop-color="#a4a4a4"/><stop offset="0.28284" stop-color="silver"/><stop offset="0.3571" stop-color="#d7d7d7"/><stop offset="0.44204" stop-color="#e9e9e9"/><stop offset="0.54426" stop-color="#f6f6f6"/><stop offset="0.68133" stop-color="#fdfdfd"/><stop offset="1" stop-color="#fff"/></linearGradient><linearGradient id="Áåçûìÿííûé_ãðàäèåíò_3" x1="143.71385" y1="164.75633" x2="143.71385" y2="38.18298" gradientUnits="userSpaceOnUse"><stop offset="0" stop-color="#c0bff6"/><stop offset="0.29376" stop-color="#c5c4f7"/><stop offset="0.63992" stop-color="#d3d2f9"/><stop offset="1" stop-color="#e9e9fd"/></linearGradient><filter id="luminosity-noclip-2" x="315.26209" y="120.484" width="59.9792" height="53.3078" filterUnits="userSpaceOnUse" color-interpolation-filters="sRGB"><feFlood flood-color="#fff" result="bg"/><feBlend in="SourceGraphic" in2="bg"/></filter><mask id="mask-2" x="53.7455" y="6.8495" width="59.9792" height="53.3078" maskUnits="userSpaceOnUse"><g class="cls-72"><g transform="translate(-261.5166 -113.6345)"><g class="cls-1"><polygon class="cls-2" points="375.241 173.792 359.48 173.792 315.262 148.263 363.376 120.484 375.24 120.484 375.241 173.792"/></g></g></g></mask><linearGradient id="Áåçûìÿííûé_ãðàäèåíò_14" x1="53.7455" y1="33.5034" x2="113.7247" y2="33.5034" gradientUnits="userSpaceOnUse"><stop offset="0" stop-color="#e9e9fd"/><stop offset="0.03739" stop-color="#d3d5f7"/><stop offset="0.10556" stop-color="#b2b6ef"/><stop offset="0.18165" stop-color="#969be7"/><stop offset="0.26629" stop-color="#7f86e1"/><stop offset="0.36321" stop-color="#6d75dd"/><stop offset="0.47985" stop-color="#606ad9"/><stop offset="0.6363" stop-color="#5963d8"/><stop offset="1" stop-color="#5761d7"/></linearGradient><linearGradient id="Áåçûìÿííûé_ãðàäèåíò_3-2" x1="70.2046" y1="31.9755" x2="157.2436" y2="31.9755" xlink:href="#Áåçûìÿííûé_ãðàäèåíò_3"/><linearGradient id="Áåçûìÿííûé_ãðàäèåíò_3-3" x1="141.10138" y1="55.8742" x2="130.52065" y2="37.40041" xlink:href="#Áåçûìÿííûé_ãðàäèåíò_3"/><linearGradient id="Áåçûìÿííûé_ãðàäèåíò_24" x1="91.96465" y1="47.10862" x2="91.96465" y2="18.92651" gradientUnits="userSpaceOnUse"><stop offset="0" stop-color="#5761d7"/><stop offset="0.17789" stop-color="#5c66d9"/><stop offset="0.3876" stop-color="#6a73df"/><stop offset="0.6134" stop-color="#8289e8"/><stop offset="0.84896" stop-color="#a3a7f5"/><stop offset="1" stop-color="#bcbeff"/></linearGradient><linearGradient id="Áåçûìÿííûé_ãðàäèåíò_24-2" x1="93.6793" y1="25.3159" x2="116.2177" y2="25.3159" xlink:href="#Áåçûìÿííûé_ãðàäèåíò_24"/><linearGradient id="Áåçûìÿííûé_ãðàäèåíò_24-3" x1="99.5297" y1="28.6831" x2="122.0681" y2="28.6831" xlink:href="#Áåçûìÿííûé_ãðàäèåíò_24"/><linearGradient id="Áåçûìÿííûé_ãðàäèåíò_24-4" x1="105.3801" y1="32.0503" x2="127.9185" y2="32.0503" xlink:href="#Áåçûìÿííûé_ãðàäèåíò_24"/><linearGradient id="Áåçûìÿííûé_ãðàäèåíò_24-5" x1="111.2305" y1="35.41745" x2="133.7689" y2="35.41745" xlink:href="#Áåçûìÿííûé_ãðàäèåíò_24"/><linearGradient id="Áåçûìÿííûé_ãðàäèåíò_3-4" x1="367.09389" y1="187.89873" x2="372.86529" y2="187.89873" xlink:href="#Áåçûìÿííûé_ãðàäèåíò_3"/><linearGradient id="Áåçûìÿííûé_ãðàäèåíò_24-6" x1="366.39139" y1="188.48672" x2="371.16429" y2="188.48672" xlink:href="#Áåçûìÿííûé_ãðàäèåíò_24"/><linearGradient id="Áåçûìÿííûé_ãðàäèåíò_3-5" x1="316.79069" y1="156.99114" x2="322.562" y2="156.99114" xlink:href="#Áåçûìÿííûé_ãðàäèåíò_3"/><linearGradient id="Áåçûìÿííûé_ãðàäèåíò_24-7" x1="316.08809" y1="157.57913" x2="320.861" y2="157.57913" xlink:href="#Áåçûìÿííûé_ãðàäèåíò_24"/><linearGradient id="Áåçûìÿííûé_ãðàäèåíò_3-6" x1="367.09389" y1="306.94207" x2="372.86529" y2="306.94207" xlink:href="#Áåçûìÿííûé_ãðàäèåíò_3"/><linearGradient id="Áåçûìÿííûé_ãðàäèåíò_24-8" x1="366.39139" y1="307.53007" x2="371.16429" y2="307.53007" xlink:href="#Áåçûìÿííûé_ãðàäèåíò_24"/><linearGradient id="Áåçûìÿííûé_ãðàäèåíò_3-7" x1="316.79069" y1="276.03453" x2="322.562" y2="276.03453" xlink:href="#Áåçûìÿííûé_ãðàäèåíò_3"/><linearGradient id="Áåçûìÿííûé_ãðàäèåíò_24-9" x1="316.08809" y1="276.62248" x2="320.861" y2="276.62248" xlink:href="#Áåçûìÿííûé_ãðàäèåíò_24"/><linearGradient id="Áåçûìÿííûé_ãðàäèåíò_2" x1="3.4513" y1="230.96884" x2="63.48248" y2="230.96884" gradientUnits="userSpaceOnUse"><stop offset="0.24731" stop-color="#5761d7"/><stop offset="0.43628" stop-color="#6c74df"/><stop offset="0.82448" stop-color="#a2a6f5"/><stop offset="1" stop-color="#bcbeff"/></linearGradient><linearGradient id="Áåçûìÿííûé_ãðàäèåíò_3-8" x1="3.4513" y1="214.55884" x2="87.6972" y2="214.55884" xlink:href="#Áåçûìÿííûé_ãðàäèåíò_3"/><linearGradient id="Áåçûìÿííûé_ãðàäèåíò_254" x1="19.5332" y1="214.55909" x2="71.6153" y2="214.55909" gradientUnits="userSpaceOnUse"><stop offset="0" stop-color="#42e8e0"/><stop offset="0.15073" stop-color="#43e3e0"/><stop offset="0.32849" stop-color="#45d5df"/><stop offset="0.5199" stop-color="#49bddd"/><stop offset="0.72093" stop-color="#4e9cdb"/><stop offset="0.92742" stop-color="#5472d8"/><stop offset="1" stop-color="#5761d7"/></linearGradient><linearGradient id="Áåçûìÿííûé_ãðàäèåíò_254-2" x1="45.5739" y1="196.525" x2="71.6153" y2="196.525" xlink:href="#Áåçûìÿííûé_ãðàäèåíò_254"/><linearGradient id="Áåçûìÿííûé_ãðàäèåíò_254-3" x1="19.5332" y1="196.5248" x2="45.5746" y2="196.5248" xlink:href="#Áåçûìÿííûé_ãðàäèåíò_254"/><linearGradient id="Áåçûìÿííûé_ãðàäèåíò_254-4" x1="19.5332" y1="193.5257" x2="71.6153" y2="193.5257" xlink:href="#Áåçûìÿííûé_ãðàäèåíò_254"/><linearGradient id="Áåçûìÿííûé_ãðàäèåíò_254-5" x1="45.5746" y1="211.55979" x2="71.6153" y2="211.55979" xlink:href="#Áåçûìÿííûé_ãðàäèåíò_254"/><linearGradient id="Áåçûìÿííûé_ãðàäèåíò_254-6" x1="19.5332" y1="211.55959" x2="45.5746" y2="211.55959" xlink:href="#Áåçûìÿííûé_ãðàäèåíò_254"/><linearGradient id="Áåçûìÿííûé_ãðàäèåíò_143" x1="257.70957" y1="346.70346" x2="325.91452" y2="346.70346" gradientTransform="translate(152.0501)" gradientUnits="userSpaceOnUse"><stop offset="0" stop-color="#5761d7"/><stop offset="0.07258" stop-color="#5472d8"/><stop offset="0.27907" stop-color="#4e9cdb"/><stop offset="0.4801" stop-color="#49bddd"/><stop offset="0.67151" stop-color="#45d5df"/><stop offset="0.84927" stop-color="#43e3e0"/><stop offset="1" stop-color="#42e8e0"/></linearGradient><linearGradient id="Áåçûìÿííûé_ãðàäèåíò_143-2" x1="257.70957" y1="341.45673" x2="325.91452" y2="341.45673" xlink:href="#Áåçûìÿííûé_ãðàäèåíò_143"/><linearGradient id="Áåçûìÿííûé_ãðàäèåíò_143-3" x1="257.70957" y1="336.20995" x2="325.91452" y2="336.20995" xlink:href="#Áåçûìÿííûé_ãðàäèåíò_143"/><linearGradient id="Áåçûìÿííûé_ãðàäèåíò_143-4" x1="257.70957" y1="330.96315" x2="325.91452" y2="330.96315" xlink:href="#Áåçûìÿííûé_ãðàäèåíò_143"/><linearGradient id="Áåçûìÿííûé_ãðàäèåíò_143-5" x1="257.7096" y1="338.8333" x2="325.91449" y2="338.8333" xlink:href="#Áåçûìÿííûé_ãðàäèåíò_143"/><linearGradient id="Áåçûìÿííûé_ãðàäèåíò_143-6" x1="250.70345" y1="316.59478" x2="332.92064" y2="316.59478" xlink:href="#Áåçûìÿííûé_ãðàäèåíò_143"/><linearGradient id="Áåçûìÿííûé_ãðàäèåíò_143-7" x1="250.70345" y1="310.27008" x2="332.92064" y2="310.27008" xlink:href="#Áåçûìÿííûé_ãðàäèåíò_143"/><linearGradient id="Áåçûìÿííûé_ãðàäèåíò_143-8" x1="250.70345" y1="303.94539" x2="332.92064" y2="303.94539" xlink:href="#Áåçûìÿííûé_ãðàäèåíò_143"/><linearGradient id="Áåçûìÿííûé_ãðàäèåíò_143-9" x1="250.70345" y1="297.62073" x2="332.92064" y2="297.62073" xlink:href="#Áåçûìÿííûé_ãðàäèåíò_143"/><linearGradient id="Áåçûìÿííûé_ãðàäèåíò_143-10" x1="250.7034" y1="307.10774" x2="332.92069" y2="307.10774" xlink:href="#Áåçûìÿííûé_ãðàäèåíò_143"/><linearGradient id="Áåçûìÿííûé_ãðàäèåíò_143-11" x1="241.96557" y1="286.8857" x2="341.65852" y2="286.8857" xlink:href="#Áåçûìÿííûé_ãðàäèåíò_143"/><linearGradient id="Áåçûìÿííûé_ãðàäèåíò_143-12" x1="241.96557" y1="279.21667" x2="341.65852" y2="279.21667" xlink:href="#Áåçûìÿííûé_ãðàäèåíò_143"/><linearGradient id="Áåçûìÿííûé_ãðàäèåíò_143-13" x1="241.96557" y1="271.54767" x2="341.65852" y2="271.54767" xlink:href="#Áåçûìÿííûé_ãðàäèåíò_143"/><linearGradient id="Áåçûìÿííûé_ãðàäèåíò_143-14" x1="241.96557" y1="263.8786" x2="341.65852" y2="263.8786" xlink:href="#Áåçûìÿííûé_ãðàäèåíò_143"/><linearGradient id="Áåçûìÿííûé_ãðàäèåíò_143-15" x1="241.9656" y1="275.38214" x2="341.65849" y2="275.38214" xlink:href="#Áåçûìÿííûé_ãðàäèåíò_143"/><linearGradient id="Áåçûìÿííûé_ãðàäèåíò_143-17" x1="241.96619" y1="277.70087" x2="341.65788" y2="277.70087" xlink:href="#Áåçûìÿííûé_ãðàäèåíò_143"/><linearGradient id="Áåçûìÿííûé_ãðàäèåíò_143-18" x1="240.18149" y1="248.15593" x2="250.70116" y2="248.15593" gradientTransform="matrix(0.9983, 0.0579, -0.0579, 0.9983, 196.28368, -53.735)" xlink:href="#Áåçûìÿííûé_ãðàäèåíò_143"/><linearGradient id="Áåçûìÿííûé_ãðàäèåíò_143-19" x1="255.05334" y1="251.56695" x2="277.06175" y2="251.56695" gradientTransform="matrix(0.9983, 0.0579, -0.0579, 0.9983, 196.28368, -53.735)" xlink:href="#Áåçûìÿííûé_ãðàäèåíò_143"/><linearGradient id="Áåçûìÿííûé_ãðàäèåíò_143-20" x1="244.93979" y1="223.66228" x2="280.73436" y2="223.66228" gradientTransform="matrix(0.9983, 0.0579, -0.0579, 0.9983, 196.28368, -53.735)" xlink:href="#Áåçûìÿííûé_ãðàäèåíò_143"/></defs><title>803 [Converted]</title><g class="cls-3"><g id="Ñëîé_1" data-name="Ñëîé 1"><path class="cls-4" d="M375.47339,333.3065a3.76191,3.76191,0,0,1-1.85339-.4341l-41.68041-24.0646a1.46763,1.46763,0,0,1-.8337-1.2543,1.911,1.911,0,0,1,1.1129-1.5482L373.34,282.264a4.6126,4.6126,0,0,1,4.20839-.1612l41.6804,24.0646a1.46792,1.46792,0,0,1,.8341,1.2535,1.91245,1.91245,0,0,1-1.1124,1.549l-41.1221,23.7413A4.8202,4.8202,0,0,1,375.47339,333.3065Zm.2313-50.9871a4.21637,4.21637,0,0,0-2.0423.5038l-41.1212,23.7413c-.4945.2855-.7901.6557-.7901.989a.8724.8724,0,0,0,.5113.69519l41.6804,24.06451a4.03071,4.03071,0,0,0,3.5627-.1612l41.1221-23.74131c.4945-.28539.7897-.65569.7897-.98979a.87273.87273,0,0,0-.5109-.6944L377.226,282.662A3.11559,3.11559,0,0,0,375.70469,282.3194Z" transform="translate(-261.5166 -113.6345)"/><polygon class="cls-5" points="113.725 69.257 53.745 34.628 113.723 0 173.703 34.629 113.725 69.257"/><polygon class="cls-6" points="113.725 202.182 53.745 167.552 113.723 132.924 173.703 167.554 113.725 202.182"/><polygon class="cls-7" points="173.703 34.629 173.703 167.554 113.725 202.182 113.725 69.257 173.703 34.629"/><polygon class="cls-8" points="53.745 34.628 53.745 167.552 113.725 202.182 113.725 69.257 53.745 34.628"/><g class="cls-9"><polygon class="cls-10" points="57.808 43.447 57.808 162.924 109.662 192.862 109.662 73.385 57.808 43.447"/></g><polygon class="cls-10" points="164.706 66.745 164.706 70.258 122.722 94.498 122.722 90.984 164.706 66.745"/><polygon class="cls-10" points="164.706 81.6 164.706 85.114 122.722 109.353 122.722 105.84 164.706 81.6"/><polygon class="cls-10" points="164.706 96.456 164.706 99.969 122.722 124.209 122.722 120.695 164.706 96.456"/><polygon class="cls-10" points="164.706 111.311 164.706 114.824 122.722 139.064 122.722 135.551 164.706 111.311"/><polygon class="cls-10" points="164.706 126.166 164.706 129.68 122.722 153.92 122.722 150.406 164.706 126.166"/><polygon class="cls-10" points="164.706 141.022 164.706 144.535 122.722 168.775 122.722 165.262 164.706 141.022"/><g class="cls-11"><polygon class="cls-12" points="113.725 60.157 97.963 60.157 53.745 34.628 101.859 6.849 113.723 6.849 113.725 60.157"/></g><polygon class="cls-13" points="113.725 57.101 70.205 31.975 113.723 6.849 157.244 31.976 113.725 57.101"/><polygon class="cls-14" points="157.244 31.976 157.244 35.032 113.725 60.157 113.725 57.101 157.244 31.976"/><polygon class="cls-15" points="70.205 31.975 70.205 35.031 113.725 60.157 113.725 57.101 70.205 31.975"/><polygon class="cls-16" points="96.846 32.378 94.917 31.264 95.077 30.361 112.956 19.957 115.439 21.14 114.976 21.91 96.846 32.378"/><polygon class="cls-17" points="113.051 20.799 114.976 21.91 116.218 21.194 113.051 19.365 93.679 30.549 94.921 31.266 113.051 20.799"/><polygon class="cls-16" points="102.696 35.745 100.768 34.631 100.927 33.729 118.807 23.324 121.289 24.507 120.826 25.278 102.696 35.745"/><polygon class="cls-18" points="118.901 24.166 120.826 25.278 122.068 24.561 118.901 22.732 99.53 33.917 100.771 34.634 118.901 24.166"/><polygon class="cls-16" points="108.547 39.112 106.618 37.999 106.778 37.096 124.657 26.691 127.139 27.874 126.677 28.645 108.547 39.112"/><polygon class="cls-19" points="124.752 27.534 126.677 28.645 127.918 27.928 124.752 26.1 105.38 37.284 106.622 38.001 124.752 27.534"/><polygon class="cls-16" points="114.397 42.479 112.468 41.366 112.628 40.463 130.507 30.058 132.99 31.241 132.527 32.012 114.397 42.479"/><polygon class="cls-20" points="130.602 30.901 132.527 32.012 133.769 31.295 130.602 29.467 111.23 40.651 112.472 41.368 130.602 30.901"/><g class="cls-9"><polygon class="cls-10" points="53.745 146.546 113.724 110.332 113.725 69.257 53.745 34.628 53.745 146.546"/></g><path class="cls-21" d="M372.86529,188.8694a5.27506,5.27506,0,0,0-2.3865-4.1334,1.67081,1.67081,0,0,0-1.69479-.162l.00009-.0009-1.6902.9889,1.0453.0359a2.73,2.73,0,0,0-.0468.5159,5.275,5.275,0,0,0,2.3864,4.1334,2.68054,2.68054,0,0,0,.5107.23l-.487.9098,1.6548-.9676-.0006-.0006A1.66947,1.66947,0,0,0,372.86529,188.8694Z" transform="translate(-261.5166 -113.6345)"/><path class="cls-22" d="M371.16429,189.8645c0,1.5219-1.0685,2.1387-2.3865,1.3778a5.275,5.275,0,0,1-2.3864-4.1334c0-1.5219,1.0684-2.1387,2.3864-1.3777A5.27471,5.27471,0,0,1,371.16429,189.8645Z" transform="translate(-261.5166 -113.6345)"/><path class="cls-16" d="M370.15069,189.2793c0,.8755-.61469,1.23039-1.3729.7926a3.03441,3.03441,0,0,1-1.37279-2.3778c0-.8755.61459-1.2303,1.37279-.7926A3.0345,3.0345,0,0,1,370.15069,189.2793Z" transform="translate(-261.5166 -113.6345)"/><path class="cls-23" d="M322.562,157.9619a5.27466,5.27466,0,0,0-2.38641-4.1334,1.67064,1.67064,0,0,0-1.6948-.1621l.0001-.0009-1.6902.9889,1.04531.0359a2.72957,2.72957,0,0,0-.04691.5159,5.27477,5.27477,0,0,0,2.3865,4.1334,2.68054,2.68054,0,0,0,.5107.23l-.487.9098,1.6548-.9675-.0006-.0006A1.66975,1.66975,0,0,0,322.562,157.9619Z" transform="translate(-261.5166 -113.6345)"/><path class="cls-24" d="M320.861,158.9569c0,1.5219-1.06841,2.1387-2.38641,1.37779a5.27489,5.27489,0,0,1-2.3865-4.13339c0-1.5218,1.0685-2.1387,2.3865-1.3777A5.27463,5.27463,0,0,1,320.861,158.9569Z" transform="translate(-261.5166 -113.6345)"/><path class="cls-16" d="M319.84749,158.37169c0,.87551-.6147,1.23041-1.3729.79261a3.03437,3.03437,0,0,1-1.3729-2.3778c0-.8755.6147-1.2303,1.3729-.7926A3.03466,3.03466,0,0,1,319.84749,158.37169Z" transform="translate(-261.5166 -113.6345)"/><path class="cls-25" d="M372.86529,307.9128a5.2749,5.2749,0,0,0-2.3865-4.1334,1.67109,1.67109,0,0,0-1.69479-.1621l.00009-.0009-1.6902.989,1.0453.0358a2.731,2.731,0,0,0-.0468.516,5.27462,5.27462,0,0,0,2.3864,4.1333,2.68125,2.68125,0,0,0,.5107.2301l-.487.9097,1.6548-.9675-.0006-.0006A1.66957,1.66957,0,0,0,372.86529,307.9128Z" transform="translate(-261.5166 -113.6345)"/><path class="cls-26" d="M371.16429,308.9079c0,1.52179-1.0685,2.1387-2.3865,1.3777a5.27463,5.27463,0,0,1-2.3864-4.1333c0-1.5219,1.0684-2.1387,2.3864-1.3778A5.2749,5.2749,0,0,1,371.16429,308.9079Z" transform="translate(-261.5166 -113.6345)"/><path class="cls-16" d="M370.15069,308.32269c0,.87551-.61469,1.23031-1.3729.79261a3.03457,3.03457,0,0,1-1.37279-2.3778c0-.8755.61459-1.2304,1.37279-.7926A3.03434,3.03434,0,0,1,370.15069,308.32269Z" transform="translate(-261.5166 -113.6345)"/><path class="cls-27" d="M322.562,277.0052a5.27481,5.27481,0,0,0-2.38641-4.1334,1.67085,1.67085,0,0,0-1.6948-.162l.0001-.0009-1.6902.9889,1.04531.03589a2.72883,2.72883,0,0,0-.04691.51591,5.27472,5.27472,0,0,0,2.3865,4.1333,2.675,2.675,0,0,0,.5107.2301l-.487.9098,1.6548-.9676-.0006-.0006A1.66975,1.66975,0,0,0,322.562,277.0052Z" transform="translate(-261.5166 -113.6345)"/><path class="cls-28" d="M320.861,278.0003c0,1.5219-1.06841,2.1387-2.38641,1.3777a5.27473,5.27473,0,0,1-2.3865-4.13331c0-1.52189,1.0685-2.13869,2.3865-1.37779A5.275,5.275,0,0,1,320.861,278.0003Z" transform="translate(-261.5166 -113.6345)"/><path class="cls-16" d="M319.84749,277.4151c0,.8755-.6147,1.2303-1.3729.79259a3.03449,3.03449,0,0,1-1.3729-2.37779c0-.8755.6147-1.2304,1.3729-.7926A3.03453,3.03453,0,0,1,319.84749,277.4151Z" transform="translate(-261.5166 -113.6345)"/><polygon class="cls-29" points="79.505 100.497 72.966 96.722 72.966 95.286 79.505 99.061 79.505 100.497"/><polygon class="cls-30" points="82.858 102.433 80.504 101.074 80.504 99.638 82.858 100.997 82.858 102.433"/><polygon class="cls-29" points="85.457 103.934 83.857 103.01 83.857 101.574 85.457 102.498 85.457 103.934"/><polygon class="cls-29" points="76.529 102.059 72.966 100.002 72.966 98.566 76.529 100.623 76.529 102.059"/><polygon class="cls-29" points="81.894 105.157 77.528 102.636 77.528 101.2 81.894 103.721 81.894 105.157"/><polygon class="cls-29" points="84.493 106.657 82.893 105.734 82.893 104.298 84.493 105.221 84.493 106.657"/><polygon class="cls-29" points="86.966 108.085 85.366 107.161 85.366 105.725 86.966 106.649 86.966 108.085"/><polygon class="cls-29" points="75.544 104.771 72.966 103.283 72.966 101.847 75.544 103.335 75.544 104.771"/><polygon class="cls-29" points="77.424 105.856 76.543 105.348 76.543 103.912 77.424 104.42 77.424 105.856"/><polygon class="cls-29" points="80.023 107.357 78.423 106.433 78.423 104.997 80.023 105.921 80.023 107.357"/><polygon class="cls-30" points="82.481 112.056 72.966 106.563 72.966 105.127 82.481 110.62 82.481 112.056"/><polygon class="cls-29" points="85.834 113.992 83.48 112.633 83.48 111.197 85.834 112.556 85.834 113.992"/><polygon class="cls-29" points="75.544 111.331 72.966 109.843 72.966 108.407 75.544 109.895 75.544 111.331"/><polygon class="cls-29" points="81.594 114.824 76.543 111.908 76.543 110.472 81.594 113.388 81.594 114.824"/><polygon class="cls-29" points="84.192 116.325 82.593 115.401 82.593 113.965 84.192 114.889 84.192 116.325"/><polygon class="cls-30" points="78.24 116.168 72.966 113.123 72.966 111.687 78.24 114.732 78.24 116.168"/><polygon class="cls-30" points="83.054 118.947 79.239 116.745 79.239 115.309 83.054 117.511 83.054 118.947"/><polygon class="cls-29" points="86.63 121.012 84.053 119.524 84.053 118.088 86.63 119.576 86.63 121.012"/><polygon class="cls-29" points="74.748 117.432 72.966 116.404 72.966 114.968 74.748 115.996 74.748 117.432"/><polygon class="cls-29" points="78.101 119.368 75.746 118.009 75.746 116.573 78.101 117.932 78.101 119.368"/><polygon class="cls-29" points="82.893 122.135 79.1 119.945 79.1 118.509 82.893 120.699 82.893 122.135"/><polygon class="cls-29" points="78.423 122.834 72.966 119.684 72.966 118.248 78.423 121.398 78.423 122.834"/><polygon class="cls-30" points="84.535 126.363 79.422 123.411 79.422 121.975 84.535 124.927 84.535 126.363"/><polygon class="cls-29" points="87.133 127.863 85.534 126.94 85.534 125.504 87.133 126.427 87.133 127.863"/><polygon class="cls-29" points="89.627 129.303 88.028 128.38 88.028 126.944 89.627 127.867 89.627 129.303"/><polygon class="cls-29" points="76.235 124.852 72.966 122.964 72.966 121.528 76.235 123.416 76.235 124.852"/><polygon class="cls-29" points="89.909 106.504 94.443 109.122 94.443 107.686 89.909 105.068 89.909 106.504"/><polygon class="cls-30" points="90.88 110.345 94.443 112.402 94.443 110.966 90.88 108.909 90.88 110.345"/><polygon class="cls-29" points="91.865 114.194 94.443 115.682 94.443 114.246 91.865 112.758 91.865 114.194"/><polygon class="cls-29" points="90.693 116.797 94.443 118.962 94.443 117.526 90.693 115.361 90.693 116.797"/><polygon class="cls-29" points="91.865 120.754 94.443 122.242 94.443 120.807 91.865 119.318 91.865 120.754"/><polygon class="cls-29" points="91.173 123.635 94.443 125.523 94.443 124.087 91.173 122.199 91.173 123.635"/><polygon class="cls-29" points="92.661 127.774 94.443 128.803 94.443 127.367 92.661 126.339 92.661 127.774"/><polygon class="cls-29" points="90.991 130.09 94.443 132.083 94.443 130.647 90.991 128.654 90.991 130.09"/><polygon class="cls-29" points="91.173 133.476 94.443 135.363 94.443 133.927 91.173 132.04 91.173 133.476"/><polygon class="cls-29" points="78.625 126.231 77.234 125.428 77.234 123.992 78.625 124.795 78.625 126.231"/><polygon class="cls-30" points="82.753 128.615 79.624 126.808 79.624 125.372 82.753 127.179 82.753 128.615"/><polygon class="cls-29" points="85.342 139.649 80.061 136.6 80.061 135.164 85.342 138.213 85.342 139.649"/><polygon class="cls-29" points="88.959 141.737 86.879 140.536 86.879 139.1 88.959 140.301 88.959 141.737"/><path class="cls-29" d="M363.85369,271.934a1.36261,1.36261,0,0,1-.68169-.1965l-36.47471-21.0581a3.08756,3.08756,0,0,1-1.32729-2.491V195.4181a1.43749,1.43749,0,0,1,.62419-1.3072,1.187,1.187,0,0,1,1.2094.0571l36.4747,21.0581a3.08771,3.08771,0,0,1,1.3273,2.491v52.7703a1.4375,1.4375,0,0,1-.6242,1.3072A1.04557,1.04557,0,0,1,363.85369,271.934Zm-37.3289-76.9499a.053.053,0,0,0-.0239.0042c-.0307.0176-.1184.1343-.1184.4298v52.7703a2.08559,2.08559,0,0,0,.8211,1.6145l36.4747,21.0581c.1074.0613.1784.0655.1964.0562.0307-.0176.1184-.1343.1184-.4298V217.7171a2.08561,2.08561,0,0,0-.82109-1.6145l-36.47471-21.0581A.38118.38118,0,0,0,326.52479,194.9841Z" transform="translate(-261.5166 -113.6345)"/><path class="cls-4" d="M307.09169,372.7914,261.5166,346.4776l45.573-26.3121,45.576,26.313ZM262.8074,346.4776l44.28429,25.5683,44.2827-25.5674-44.2848-25.5674Z" transform="translate(-261.5166 -113.6345)"/><polygon class="cls-31" points="87.697 223.06 87.697 214.559 45.574 237.801 3.451 214.558 3.451 223.059 45.575 247.379 87.697 223.06"/><polygon class="cls-32" points="45.575 238.878 3.451 214.558 45.574 190.239 87.697 214.559 45.575 238.878"/><polygon class="cls-33" points="45.575 238.178 4.058 214.208 3.451 214.558 45.575 238.878 87.697 214.559 87.091 214.209 45.575 238.178"/><polygon class="cls-34" points="45.575 229.593 19.534 214.559 45.574 199.524 71.615 214.559 45.575 229.593"/><polygon class="cls-35" points="45.575 229.594 19.533 214.559 45.574 199.524 71.615 214.559 45.575 229.594"/><polygon class="cls-36" points="45.574 178.491 71.615 193.526 71.615 214.559 45.574 199.524 45.574 178.491"/><polygon class="cls-37" points="45.575 199.524 19.533 214.559 19.533 193.525 45.574 178.491 45.575 199.524"/><polygon class="cls-38" points="45.575 208.56 19.533 193.525 45.574 178.491 71.615 193.526 45.575 208.56"/><polygon class="cls-39" points="45.575 208.56 45.575 229.594 71.615 214.559 71.615 193.526 45.575 208.56"/><polygon class="cls-40" points="19.533 193.525 19.533 214.559 45.575 229.594 45.575 208.56 19.533 193.525"/><path class="cls-4" d="M443.86259,372.7914l-45.5744-26.3138,45.5727-26.3121,45.576,26.313Zm-44.2839-26.3138,44.2839,25.5683,44.283-25.5674-44.2847-25.5674Z" transform="translate(-261.5166 -113.6345)"/><path class="cls-4" d="M374.60689,386.38649l-.1503-.0873c-15.44259-8.96409-44.8523-26.00819-45.6263-26.34569l.1905-.5692c.5029.1453,37.7026,21.73139,45.587,26.30869l46.2741-26.71669.3005.5205Z" transform="translate(-261.5166 -113.6345)"/><polygon class="cls-41" points="45.574 207.844 20.153 193.167 19.533 193.525 45.574 208.56 71.615 193.526 70.994 193.168 45.574 207.844"/><g class="cls-42"><g class="cls-43"><path class="cls-44" d="M446.49849,328.0734a5.23016,5.23016,0,0,0-5.2258-.0026l-31.1453,17.9403a.73542.73542,0,0,0,0,1.2738l31.4048,18.1316a4.612,4.612,0,0,0,4.6116,0l31.4531-18.1146a.73542.73542,0,0,0,0-1.2738Z" transform="translate(-261.5166 -113.6345)"/></g><g class="cls-43"><path class="cls-45" d="M446.49849,322.8266a5.23065,5.23065,0,0,0-5.2258-.0026l-31.1453,17.9403a.73542.73542,0,0,0,0,1.2738l31.4048,18.13159a4.61147,4.61147,0,0,0,4.6116,0l31.4531-18.11449a.7355.7355,0,0,0,0-1.2739Z" transform="translate(-261.5166 -113.6345)"/></g><g class="cls-43"><path class="cls-46" d="M446.49849,317.5799a5.23016,5.23016,0,0,0-5.2258-.0026l-31.1453,17.9402a.7355.7355,0,0,0,0,1.2739l31.4048,18.1315a4.61157,4.61157,0,0,0,4.6116,0l31.4531-18.1145a.73542.73542,0,0,0,0-1.2738Z" transform="translate(-261.5166 -113.6345)"/></g><g class="cls-43"><path class="cls-47" d="M446.49849,312.3331a5.23012,5.23012,0,0,0-5.2258-.0026l-31.1453,17.94019a.73551.73551,0,0,0,0,1.27391l31.4048,18.1315a4.61152,4.61152,0,0,0,4.6116,0l31.4531-18.1145a.73542.73542,0,0,0,0-1.2738Z" transform="translate(-261.5166 -113.6345)"/></g><path class="cls-48" d="M477.59689,330.2878l-31.0984-17.9547a5.23012,5.23012,0,0,0-5.2258-.0026l-31.1453,17.94019a.72882.72882,0,0,0-.3677.63691V346.648a.72879.72879,0,0,0,.3677.6369l31.4048,18.1315a4.61152,4.61152,0,0,0,4.6116,0l31.4531-18.1145a.72837.72837,0,0,0,.3677-.6369V330.92469h0A.72814.72814,0,0,0,477.59689,330.2878Z" transform="translate(-261.5166 -113.6345)"/></g><g class="cls-43"><path class="cls-49" d="M447.04009,294.1373a6.30513,6.30513,0,0,0-6.2994-.0032l-37.5439,21.626a.88653.88653,0,0,0,0,1.5355l37.8567,21.8566a5.5591,5.5591,0,0,0,5.559,0l37.915-21.836a.88662.88662,0,0,0,0-1.5356Z" transform="translate(-261.5166 -113.6345)"/></g><g class="cls-43"><path class="cls-50" d="M447.04009,287.8126a6.30513,6.30513,0,0,0-6.2994-.0032l-37.5439,21.626a.88653.88653,0,0,0,0,1.5355l37.8567,21.8566a5.5591,5.5591,0,0,0,5.559,0l37.915-21.836a.88653.88653,0,0,0,0-1.5355Z" transform="translate(-261.5166 -113.6345)"/></g><g class="cls-43"><path class="cls-51" d="M447.04009,281.4879a6.30488,6.30488,0,0,0-6.2994-.0031l-37.5439,21.62589a.88663.88663,0,0,0,0,1.53561l37.8567,21.8565a5.5591,5.5591,0,0,0,5.559,0l37.915-21.836a.88653.88653,0,0,0,0-1.5355Z" transform="translate(-261.5166 -113.6345)"/></g><g class="cls-43"><path class="cls-52" d="M447.04009,275.1632a6.30488,6.30488,0,0,0-6.2994-.0031l-37.5439,21.6259a.88662.88662,0,0,0,0,1.5356l37.8567,21.8565a5.55861,5.55861,0,0,0,5.559,0l37.915-21.836a.88653.88653,0,0,0,0-1.5355Z" transform="translate(-261.5166 -113.6345)"/></g><path class="cls-53" d="M484.52749,296.8066l-37.4874-21.6434a6.30488,6.30488,0,0,0-6.2994-.0031l-37.5439,21.6259a.87831.87831,0,0,0-.4433.7678v18.974a.87831.87831,0,0,0,.4433.7678l37.8567,21.8566a5.5591,5.5591,0,0,0,5.559,0l37.915-21.836a.87829.87829,0,0,0,.4433-.7678v-18.974h0A.87829.87829,0,0,0,484.52749,296.8066Z" transform="translate(-261.5166 -113.6345)"/><g class="cls-43"><path class="cls-54" d="M447.71559,259.6548a7.645,7.645,0,0,0-7.6384-.0039l-45.524,26.2227a1.07493,1.07493,0,0,0,0,1.8619l45.9033,26.5023a6.74056,6.74056,0,0,0,6.7406,0l45.974-26.4773a1.075,1.075,0,0,0,0-1.862Z" transform="translate(-261.5166 -113.6345)"/></g><g class="cls-43"><path class="cls-55" d="M447.71559,251.98569a7.64507,7.64507,0,0,0-7.6384-.00379l-45.524,26.2227a1.07493,1.07493,0,0,0,0,1.8619l45.9033,26.5023a6.74056,6.74056,0,0,0,6.7406,0l45.974-26.4774a1.07493,1.07493,0,0,0,0-1.8619Z" transform="translate(-261.5166 -113.6345)"/></g><g class="cls-43"><path class="cls-56" d="M447.71559,244.31669a7.64507,7.64507,0,0,0-7.6384-.00379l-45.524,26.2226a1.075,1.075,0,0,0,0,1.862l45.9033,26.5023a6.74056,6.74056,0,0,0,6.7406,0l45.974-26.4774a1.07493,1.07493,0,0,0,0-1.8619Z" transform="translate(-261.5166 -113.6345)"/></g><g class="cls-43"><path class="cls-57" d="M447.71559,236.64769a7.64507,7.64507,0,0,0-7.6384-.00389l-45.524,26.2227a1.07493,1.07493,0,0,0,0,1.8619l45.9033,26.50229a6.74051,6.74051,0,0,0,6.7406,0l45.974-26.47729a1.075,1.075,0,0,0,0-1.862Z" transform="translate(-261.5166 -113.6345)"/></g><path class="cls-58" d="M493.17109,262.8914l-45.4555-26.2438a7.64529,7.64529,0,0,0-7.6384-.0038l-45.524,26.2227a1.065,1.065,0,0,0-.5375.931v23.0071a1.065,1.065,0,0,0,.5375.9309l45.9033,26.5023a6.74056,6.74056,0,0,0,6.7406,0l45.974-26.4773a1.06491,1.06491,0,0,0,.5375-.931V263.8224h0A1.0647,1.0647,0,0,0,493.17109,262.8914Z" transform="translate(-261.5166 -113.6345)"/><g class="cls-43"><path class="cls-57" d="M447.71559,236.64769a7.64507,7.64507,0,0,0-7.6384-.00389l-45.524,26.2227a1.07493,1.07493,0,0,0,0,1.8619l45.9033,26.50229a6.74051,6.74051,0,0,0,6.7406,0l45.974-26.47729a1.075,1.075,0,0,0,0-1.862Z" transform="translate(-261.5166 -113.6345)"/></g><path class="cls-59" d="M493.17109,263.6941l-45.974,26.4774a6.74056,6.74056,0,0,1-6.7406,0l-45.9034-26.5023a1.066,1.066,0,0,1-.3987-.4013,1.07553,1.07553,0,0,0,.3987,1.4605l45.9034,26.50229a6.74,6.74,0,0,0,6.7406,0l45.974-26.47729a1.07548,1.07548,0,0,0,.3987-1.4606A1.06447,1.06447,0,0,1,493.17109,263.6941Z" transform="translate(-261.5166 -113.6345)"/><ellipse class="cls-60" cx="182.34555" cy="150.2441" rx="25.06353" ry="14.47045"/><path class="cls-61" d="M434.32259,251.6091s-.6093.6352-1.2414,1.3835a16.87285,16.87285,0,0,1-3.1563,2.2538c-.7464.4637-4.1676,3.0564-4.8825,5.6099-.715,2.5533,1.7294,2.8913,4.2301,2.4476s4.8367-2.7506,5.5173-3.5833a23.36016,23.36016,0,0,1,6.1157-4.3118c3.0686-1.5884,1.21351-3.7238,1.21351-3.7238Z" transform="translate(-261.5166 -113.6345)"/><path class="cls-61" d="M457.10559,259.19369a9.49551,9.49551,0,0,1,.6492,2.625c.1433,1.47681.35021,4.67781.4268,5.61441a7.92178,7.92178,0,0,1-1.541,5.422c-1.6481,2.1941-2.4997,3.0605-4.6902,2.19759s-2.1408-4.53979-1.7532-6.43069a52.40071,52.40071,0,0,0,.70781-6.5661,1.31521,1.31521,0,0,1,.12559-.7279Z" transform="translate(-261.5166 -113.6345)"/><path class="cls-8" d="M426.76349,208.2303s.46151,16.8606,4.3909,25.8107a65.07549,65.07549,0,0,1,3.1861,17.2584,3.35121,3.35121,0,0,0,.2719,2.9268c.9214,1.3127,6.6902,2.5139,7.6434-1.7973.95321-4.3114.5869-12.3788-.461-15.7431s.373-12.6365.373-12.6365,1.5769,1.0073,3.6438,7.6688a86.93484,86.93484,0,0,0,4.2987,11.0429c.711,1.8402,1.3648,13.1298.9143,18.6423,0,0,4.6715.6633,6.0221-1.5698s1.80231-13.7856,1.4599-17.46881-1.8825-15.482-1.6708-19.133.9723-6.61609.1371-10.26249-25.4855-11.748-25.4855-11.748Z" transform="translate(-261.5166 -113.6345)"/><path class="cls-61" d="M456.83579,223.23169c.2116-3.65109.9723-6.61609.1371-10.26249-.3141-1.3707-3.9937-3.371-8.46389-5.3339-7.544-.68861-17.11191-1.4881-17.771-1.3878a24.79017,24.79017,0,0,0-3.44791,1.2014l-.5266.7814s.0283,1.02539.1291,2.6997c1.7596.5264,5.1449-.0171,5.1449-.0171a18.232,18.232,0,0,0,7.0726,7.2025c3.6562,1.8147,14.3553,1.1921,14.9694,1.8819s.7331,9.92039.6651,11.094,1.0082,8.5626,2.003,15.09639c.9789,6.42841-.5112,14.24061-.5597,14.49161a2.64139,2.64139,0,0,0,.8588-.8458c1.3506-2.233,1.80231-13.7856,1.4599-17.46881S456.62409,226.88269,456.83579,223.23169Z" transform="translate(-261.5166 -113.6345)"/><path class="cls-10" d="M435.01439,153.0829s-5.4687,1.2474-7.3088,1.6792a.94667.94667,0,0,0-.6663.5777,22.34941,22.34941,0,0,0-.8595,11.6224,57.8248,57.8248,0,0,1,.8427,12.5434l-2.5296,13.1657s-3.1801,12.5391-2.9057,12.8821c.2746.343,7.3229,5.7069,9.5255,4.9516,2.2025-.7555,1.4789-2.0022,1.4789-2.0022s1.7845,9.0873,9.6831,9.0002,14.3516-.0619,15.6925-3.255-.3669-16.61531-1.7595-21.9294-4.7035-15.9072-4.7035-15.9072l11.56881-12.805-9.88711-7.5511s-2.3621-4.389-3.33289-4.9468-1.47781-.0857-1.47781-.0857Z" transform="translate(-261.5166 -113.6345)"/><path class="cls-62" d="M431.248,207.6104c.00679.4559-.25911,1.1352-1.679,1.6222-1.53351.5259-5.29161-1.7584-7.75561-3.4781,1.2303,1.0227,7.2844,5.4414,9.2993,4.7505a3.5998,3.5998,0,0,0,.991-.495A16.15631,16.15631,0,0,1,431.248,207.6104Z" transform="translate(-261.5166 -113.6345)"/><path class="cls-63" d="M457.90889,213.18269c-1.415,3.36971-8.22489,3.343-16.5605,3.435a8.90907,8.90907,0,0,1-5.1819-1.49369,8.42274,8.42274,0,0,0,6.1082,2.379c7.8987-.0872,14.3516-.062,15.6925-3.2551a16.682,16.682,0,0,0,.4525-5.8059A13.96621,13.96621,0,0,1,457.90889,213.18269Z" transform="translate(-261.5166 -113.6345)"/><path class="cls-64" d="M449.63889,150.999s2.0195,2.4438-.8866,5.7424a78.71792,78.71792,0,0,0-7.4888,10.9557c-1.638,2.8398-3.1519,4.3541-4.0102,6.7942,0,0-.1199-2.899-.235-7.3751-.1088-4.2242-.1658-8.6139.0233-9.7193C437.43119,155.12,447.40649,149.89169,449.63889,150.999Z" transform="translate(-261.5166 -113.6345)"/><path class="cls-65" d="M442.08469,158.35s-1.0349.6432-1.3916.5898-1.5023-1.1665-1.5023-1.1665-2.8672-.0517-3.1803-1.2801a26.64756,26.64756,0,0,0-.8094-3.1052,19.971,19.971,0,0,1-1.5367-4.9462c-.0096-1.2435.0374-3.465-.4995-4.6408-.537-1.176-1.2611-12.9439,10.10211-12.6121s7.83359,12.131,7.83359,12.131.8299.3534.32741,1.8725c-.50231,1.519-.615,1.6761-.87131,2.4298a3.356,3.356,0,0,1-1.1048,1.8494l-.1883,1.3995a5.61742,5.61742,0,0,1-.8731,4.2138C446.97809,157.1618,442.08469,158.35,442.08469,158.35Z" transform="translate(-261.5166 -113.6345)"/><path class="cls-8" d="M427.39339,154.8982s-1.2115.1802-5.1429,10.07c-2.1938,5.51849-5.5794,11.2334-6.2969,15.3349s-.31759,8.4857.4932,8.7944c.7805.2971,14.9058,5.5826,19.3263,7.251a.41569.41569,0,0,0,.55591-.318l1.219-6.8217-8.76571-3.3865a12.55027,12.55027,0,0,0-3.239-2.8059s1.7574-3.2384,1.6455-4.1225.1565-10.0324-.8706-13.7553S427.39339,154.8982,427.39339,154.8982Z" transform="translate(-261.5166 -113.6345)"/><path class="cls-65" d="M432.52689,181.035a17.58715,17.58715,0,0,0-1.5053-.9268c-.29859-.1154-1.9129-.6669-2.2211-.8048a6.09779,6.09779,0,0,0-1.6401.0236.511.511,0,0,0-.4013.26669c-.3732.692-1.4119,2.70541-1.29509,3.474,0,0,2.91839,1.84391,3.24429,2.66631l.4658.1001S431.129,181.6409,432.52689,181.035Z" transform="translate(-261.5166 -113.6345)"/><path class="cls-8" d="M456.20769,192.3186c-.3351-1.2785-.78169-2.8636-1.266-4.5323l-17.7524,7.6096a18.7201,18.7201,0,0,0,14.627,6.11479,12.23258,12.23258,0,0,0,5.7683-1.82279A70.8119,70.8119,0,0,0,456.20769,192.3186Z" transform="translate(-261.5166 -113.6345)"/><path class="cls-8" d="M463.073,163.6064s-4.68191.64429-8.46391,6.6396a90.731,90.731,0,0,0-6.5392,12.9331l-.1304.7802a3.157,3.157,0,0,1-4.40049,2.3648c-3.994-1.78341-9.90911-4.4799-11.01211-5.2891a10.17933,10.17933,0,0,0-4.5024,6.575c-.7697,3.6841-.5741,3.6954-.5741,3.6954s15.764,7.3576,21.8519,7.2854,13.812-20.0889,14.6624-24.2263S465.75269,164.77569,463.073,163.6064Z" transform="translate(-261.5166 -113.6345)"/><path class="cls-66" d="M463.073,163.6064s-4.68191.64429-8.46391,6.6396a90.731,90.731,0,0,0-6.5392,12.9331l-.1304.7802a3.157,3.157,0,0,1-4.40049,2.3648c-3.994-1.78341-9.90911-4.4799-11.01211-5.2891a10.17933,10.17933,0,0,0-4.5024,6.575c-.7697,3.6841-.5741,3.6954-.5741,3.6954s15.764,7.3576,21.8519,7.2854,13.812-20.0889,14.6624-24.2263S465.75269,164.77569,463.073,163.6064Z" transform="translate(-261.5166 -113.6345)"/><path class="cls-10" d="M445.80259,187.2564s1.9885,1.8595,2.8543.8412.6107-1.1312.6107-1.1312,1.789-.0162,2.0067-1.1374,1.0991-.5285,1.14971-1.7777-1.448-.9929-1.448-.9929Z" transform="translate(-261.5166 -113.6345)"/><path class="cls-65" d="M443.39959,186.2618s.547-.5088,1.2521-1.1057,1.8459-3.0658,2.0384-3.2835,2.5715-2.0424,3.7182-2.0741.2954,1.2519.0314,1.4329-1.3838.7375-1.3838.7375-1.1518.9674-1.2827,1.1091,3.2023-.2292,3.7314.0958a.90225.90225,0,0,1,.0328,1.4084,1.304,1.304,0,0,1-.659.22349,1.15918,1.15918,0,0,1-.6248,1.46831c-1.0001.4653-1.2304.20669-1.2304.20669s-.0861,1.73281-1.7374,1.38961Z" transform="translate(-261.5166 -113.6345)"/><path class="cls-67" d="M432.90859,137.7841s-1.484,4.7221,2.4208,3.3785,7.4368-3.59191,8.6628-2.7358c.9334.6518.8905,2.6501.8169,3.5667a1.35851,1.35851,0,0,0,.2344.8805l1.1571,1.6823a1.291,1.291,0,0,1,.2243.6412l.0826,1.17019a.587.587,0,0,0,.55151.54481l.26669.0154a.58707.58707,0,0,0,.6122-.4848l.301-1.7191s.91911-2.3126,2.8617-1.4041c0,0,1.299-1.7454.86741-5.4773s-2.10371-7.6123-9.42711-8.2331S432.90859,137.7841,432.90859,137.7841Z" transform="translate(-261.5166 -113.6345)"/><path class="cls-68" d="M444.10059,162.5063l-1.0955-.8502a5.91382,5.91382,0,0,0-1.4089,1.7353c-.3953.893.0014,3.7315.0014,3.7315l-.3341.5743-.411-.751-.3472-3.3564s.3728-2.4805.4091-2.5438,2.1133.2206,2.1133.2206A4.29731,4.29731,0,0,1,444.10059,162.5063Z" transform="translate(-261.5166 -113.6345)"/><path class="cls-68" d="M438.832,159.1659a3.72179,3.72179,0,0,0-1.69811.5161s1.2286.0603,1.4236.0825S438.832,159.1659,438.832,159.1659Z" transform="translate(-261.5166 -113.6345)"/><path class="cls-8" d="M441.06259,159.4301l1.9651,1.8365a4.46619,4.46619,0,0,0-2.207,2.33609s-2.1383.39931-2.3332-.37519.0053-2.7253-.2498-3.5905S441.06259,159.4301,441.06259,159.4301Z" transform="translate(-261.5166 -113.6345)"/><path class="cls-8" d="M438.56639,163.1831a10.88754,10.88754,0,0,1-.7641,2.2725c-.3991.6637-.8078,1.408-.8078,1.408l.0486,9.4289s3.4681-7.1481,4.2204-8.5953a21.829,21.829,0,0,0-.4428-4.09451C440.49319,162.9513,438.56639,163.1831,438.56639,163.1831Z" transform="translate(-261.5166 -113.6345)"/><path class="cls-69" d="M447.87849,149.2495a14.368,14.368,0,0,1-8.6877,8.5238s1.1456,1.1131,1.5023,1.1665,1.3916-.5898,1.3916-.5898,4.8934-1.1882,6.3058-3.2651a5.61733,5.61733,0,0,0,.873-4.2139l.1884-1.3994A1.54642,1.54642,0,0,1,447.87849,149.2495Z" transform="translate(-261.5166 -113.6345)"/><path class="cls-8" d="M453.09079,156.9438s-.8994,3.1022-1.0152,3.2192a13.8492,13.8492,0,0,1-2.2602-.1311l1.0413,1.9721s-10.7886,11.57-13.02469,17.7935a131.98735,131.98735,0,0,1,14.09-17.3091l-1.27141-1.9246,2.20541.4304Z" transform="translate(-261.5166 -113.6345)"/><path class="cls-8" d="M435.36909,154.2046l-.57209.6537.67229.6278-1.9948,1.8031s-.6098,12.65549,1.8261,21.0392c0,0-3.3071-7.69-2.5568-21.384l2.1588-1.464-.7065-.6951Z" transform="translate(-261.5166 -113.6345)"/><path class="cls-61" d="M442.16779,224.0493a.76988.76988,0,0,1,.0745.0588l-2.7947-2.9749c1.29,1.8193-.196,10.15-.3502,12.057s1.4927,5.8462,2.1088,10.4611c.6153,4.608-.6459,11.1872-.6496,11.2068a3.55731,3.55731,0,0,0,1.6992-2.4292c.95321-4.3114.5869-12.3788-.461-15.7431S442.16779,224.0493,442.16779,224.0493Z" transform="translate(-261.5166 -113.6345)"/><path class="cls-70" d="M449.30229,198.5908c6.088-.0723,13.812-20.0889,14.6624-24.2263.1419-.6901.2849-1.418.4144-2.1553-.022.0601-1.5992,4.382-3.1206,8.2133-1.5321,3.8583-9.6676,15.5535-13.8249,16.3154-3.7494.6873-17.2359-5.6085-19.8478-6.85121-.2363,1.40531-.1354,1.41871-.1354,1.41871S443.21439,198.663,449.30229,198.5908Z" transform="translate(-261.5166 -113.6345)"/><path class="cls-71" d="M447.32569,146.9279a.58707.58707,0,0,0,.6122-.4848l.301-1.7191s.91911-2.3126,2.8617-1.4041c0,0,1.225-1.6579.894-5.1847-2.1593,3.2419-6.9511,4.7388-6.9511,4.7388l1.1572,1.6824a1.29109,1.29109,0,0,1,.2242.641l.0826,1.17029a.587.587,0,0,0,.55151.54481Z" transform="translate(-261.5166 -113.6345)"/></g></g></svg>