<svg width="561" height="386" viewBox="0 0 561 386" fill="none" xmlns="http://www.w3.org/2000/svg">
<g clip-path="url(#clip0)">
<g opacity="0.5">
<path opacity="0.5" d="M502.721 310.359L502.198 311.542L468.272 95.0918C466.989 86.9024 457.714 80.3633 447.538 80.3633H336.416C326.24 80.3633 318.015 86.9024 318.047 95.0918L318.877 311.926L318.193 310.728L319.005 320.846L319.012 320.834C319.637 326.591 322.373 331.912 326.691 335.771C331.009 339.629 336.603 341.751 342.394 341.727H483.527C495.923 341.727 504.563 332.17 503.512 320.293L503.52 320.306L502.721 310.359Z" fill="url(#paint0_radial)"/>
<path opacity="0.5" d="M482.687 331.268H341.554C335.404 331.302 329.489 328.91 325.091 324.611C320.694 320.312 318.169 314.452 318.064 308.303L317.207 84.6327C317.175 76.4434 325.4 69.9042 335.576 69.9042H446.698C456.875 69.9042 466.149 76.4434 467.433 84.6327L502.49 308.303C504.461 320.879 495.612 331.268 482.687 331.268Z" fill="#A0F2FE"/>
<path opacity="0.5" d="M480.822 327.499H342.814C337.317 327.531 332.028 325.399 328.09 321.565C324.152 317.73 321.88 312.5 321.764 307.004L320.234 85.4961C320.184 78.138 327.554 72.2535 336.696 72.2535H445.956C455.098 72.2535 463.413 78.138 464.544 85.4961L498.581 307.004C500.307 318.238 492.369 327.499 480.822 327.499Z" fill="url(#paint1_radial)"/>
<path style="mix-blend-mode:lighten" opacity="0.25" d="M480.822 327.499H342.814C337.317 327.531 332.028 325.399 328.09 321.565C324.152 317.73 321.88 312.5 321.764 307.004L320.234 85.4961C320.184 78.138 327.554 72.2535 336.696 72.2535H445.956C455.098 72.2535 463.413 78.138 464.544 85.4961L498.581 307.004C500.307 318.238 492.369 327.499 480.822 327.499Z" fill="url(#paint2_radial)"/>
<path opacity="0.2" d="M489.465 247.678L464.544 85.4961C463.413 78.138 455.098 72.2535 445.956 72.2535H336.696C327.554 72.2535 320.184 78.138 320.234 85.4961L320.262 89.5149C365.289 148.526 422.534 197.412 489.465 247.678Z" fill="#482BB8"/>
<path opacity="0.5" d="M402.433 78.4163H381.208C380.921 78.4397 380.636 78.357 380.406 78.1839C380.176 78.0108 380.017 77.7594 379.96 77.4773V77.4773C379.925 76.9594 380.425 76.54 381.078 76.54H402.262C402.551 76.5184 402.838 76.6012 403.07 76.7732C403.303 76.9453 403.466 77.1951 403.53 77.4773V77.4773C403.578 77.9957 403.087 78.4163 402.433 78.4163Z" fill="#340D58"/>
<path opacity="0.5" d="M418.825 338.152H406.522C406.126 338.115 405.748 337.972 405.428 337.737C405.107 337.502 404.857 337.185 404.703 336.819C404.361 336.01 404.701 335.311 405.486 335.311H419.405C419.584 335.311 419.761 335.356 419.92 335.44C420.078 335.524 420.214 335.646 420.315 335.795C420.416 335.943 420.479 336.114 420.499 336.292C420.519 336.471 420.495 336.652 420.43 336.819V336.819C420.336 337.181 420.131 337.505 419.843 337.745C419.555 337.984 419.198 338.126 418.825 338.152Z" fill="#324DB5"/>
</g>
<g opacity="0.5">
<path opacity="0.5" d="M57.3539 310.359L57.8766 311.542L91.8025 95.0918C93.0861 86.9024 102.361 80.3633 112.537 80.3633H223.659C233.835 80.3633 242.06 86.9024 242.029 95.0918L241.198 311.926L241.882 310.728L241.07 320.846L241.063 320.834C240.438 326.591 237.702 331.912 233.384 335.771C229.066 339.629 223.472 341.751 217.681 341.727H76.5478C64.1521 341.727 55.5117 332.17 56.5635 320.293L56.5553 320.306L57.3539 310.359Z" fill="url(#paint3_radial)"/>
<path opacity="0.5" d="M77.3876 331.268H218.521C224.671 331.302 230.586 328.91 234.984 324.611C239.381 320.312 241.906 314.452 242.011 308.303L242.868 84.6327C242.899 76.4434 234.675 69.9042 224.499 69.9042H113.377C103.2 69.9042 93.9258 76.4434 92.6422 84.6327L57.5848 308.303C55.6137 320.879 64.4629 331.268 77.3876 331.268Z" fill="#A0F2FE"/>
<path opacity="0.5" d="M79.2525 327.499H217.261C222.758 327.531 228.047 325.399 231.985 321.564C235.923 317.73 238.195 312.5 238.311 307.004L239.84 85.4961C239.891 78.138 232.521 72.2535 223.379 72.2535H114.119C104.977 72.2535 96.662 78.138 95.5313 85.4961L61.4941 307.004C59.7679 318.238 67.7055 327.499 79.2525 327.499Z" fill="url(#paint4_radial)"/>
<path style="mix-blend-mode:lighten" opacity="0.25" d="M79.2525 327.499H217.261C222.758 327.531 228.047 325.399 231.985 321.564C235.923 317.73 238.195 312.5 238.311 307.004L239.84 85.4961C239.891 78.138 232.521 72.2535 223.379 72.2535H114.119C104.977 72.2535 96.662 78.138 95.5313 85.4961L61.4941 307.004C59.7679 318.238 67.7055 327.499 79.2525 327.499Z" fill="url(#paint5_radial)"/>
<path opacity="0.2" d="M70.6103 247.678L95.5313 85.4961C96.662 78.138 104.977 72.2535 114.119 72.2535H223.379C232.521 72.2535 239.891 78.138 239.84 85.4961L239.813 89.5149C194.786 148.526 137.541 197.412 70.6103 247.678Z" fill="#482BB8"/>
<path opacity="0.5" d="M157.642 78.4163H178.867C179.154 78.4396 179.439 78.3569 179.669 78.1839C179.899 78.0108 180.058 77.7594 180.115 77.4773V77.4773C180.15 76.9594 179.65 76.54 178.997 76.54H157.813C157.524 76.5184 157.237 76.6012 157.005 76.7732C156.772 76.9453 156.609 77.1951 156.545 77.4773V77.4773C156.497 77.9957 156.988 78.4163 157.642 78.4163Z" fill="#340D58"/>
<path opacity="0.5" d="M141.25 338.152H153.553C153.949 338.115 154.327 337.972 154.647 337.737C154.968 337.502 155.218 337.185 155.372 336.819V336.819C155.714 336.01 155.374 335.311 154.589 335.311H140.67C140.491 335.311 140.314 335.356 140.155 335.44C139.997 335.524 139.861 335.646 139.76 335.795C139.659 335.943 139.596 336.114 139.576 336.292C139.556 336.471 139.58 336.652 139.645 336.819V336.819C139.739 337.181 139.944 337.505 140.232 337.745C140.52 337.984 140.877 338.126 141.25 338.152V338.152Z" fill="#324DB5"/>
</g>
<g opacity="0.2">
<path opacity="0.2" d="M242.143 139.471C235.018 145.443 228.432 152.031 222.461 159.157L243.272 171.252C249.243 164.125 255.829 157.538 262.954 151.565L242.143 139.471Z" fill="#63BDFE"/>
<path opacity="0.2" d="M255.177 129.915C252.74 131.466 250.311 133.142 247.89 134.943L268.702 147.037C271.12 145.238 273.549 143.562 275.988 142.01L255.177 129.915Z" fill="#63BDFE"/>
<path opacity="0.2" d="M268.314 122.809C265.885 123.89 263.448 125.105 261.004 126.454L268.341 130.718C270.783 129.37 273.22 128.156 275.652 127.073L268.314 122.809V122.809Z" fill="#63BDFE"/>
<path opacity="0.2" d="M281.006 130.184C278.576 131.265 276.139 132.48 273.695 133.829L366.355 187.661C368.797 186.314 371.234 185.099 373.666 184.016L281.006 130.184V130.184Z" fill="#63BDFE"/>
<path opacity="0.2" d="M281.25 118.327C278.828 118.923 276.438 119.645 274.091 120.489L281.429 124.753C283.776 123.909 286.166 123.187 288.588 122.591L281.25 118.327Z" fill="#63BDFE"/>
<path opacity="0.2" d="M293.941 125.702C291.519 126.298 289.129 127.02 286.782 127.864L326.86 151.138C329.207 150.294 331.596 149.573 334.019 148.977L293.941 125.702Z" fill="#63BDFE"/>
<path opacity="0.2" d="M339.712 152.286C337.29 152.882 334.901 153.603 332.553 154.447L379.443 181.696C381.79 180.852 384.179 180.131 386.602 179.535L339.712 152.286Z" fill="#63BDFE"/>
<path opacity="0.2" d="M293.704 116.635C291.408 116.684 289.117 116.88 286.846 117.223L294.184 121.487C296.455 121.145 298.745 120.948 301.042 120.899L293.704 116.635V116.635Z" fill="#63BDFE"/>
<path opacity="0.2" d="M386.971 163.61C384.78 163.87 382.575 164.006 380.369 164.019L387.707 168.283C389.913 168.271 392.117 168.134 394.308 167.875L386.971 163.61H386.971Z" fill="#63BDFE"/>
<path opacity="0.2" d="M373.338 155.688C371.147 155.948 368.943 156.084 366.736 156.096L374.067 160.356C376.273 160.344 378.477 160.208 380.668 159.948L373.338 155.688Z" fill="#63BDFE"/>
<path opacity="0.2" d="M318.215 123.67C316.024 123.93 313.82 124.066 311.613 124.078L360.434 152.434C362.64 152.422 364.844 152.285 367.036 152.025L318.215 123.67Z" fill="#63BDFE"/>
<path opacity="0.2" d="M330.722 120.994C328.33 121.726 325.977 122.327 323.662 122.795L335.049 129.413C337.362 128.943 339.716 128.343 342.109 127.612L330.722 120.994V120.994Z" fill="#63BDFE"/>
<path opacity="0.2" d="M349.455 131.88C347.063 132.613 344.709 133.213 342.394 133.681L372.483 151.151C374.796 150.681 377.15 150.081 379.543 149.35L349.455 131.88Z" fill="#63BDFE"/>
<path opacity="0.2" d="M305.523 116.295C303.332 116.554 301.128 116.691 298.922 116.703L306.26 120.967C308.466 120.955 310.67 120.819 312.861 120.559L305.523 116.295V116.295Z" fill="#63BDFE"/>
<path opacity="0.2" d="M318.031 113.619C315.639 114.351 313.285 114.952 310.97 115.42L318.308 119.684C320.622 119.215 322.975 118.614 325.369 117.883L318.031 113.619Z" fill="#63BDFE"/>
<path opacity="0.2" d="M331.265 108.366C328.751 109.586 326.267 110.669 323.815 111.615L331.153 115.879C333.604 114.932 336.087 113.849 338.603 112.631L331.265 108.366Z" fill="#63BDFE"/>
<path opacity="0.2" d="M344.954 100.52C342.802 101.943 340.629 103.288 338.436 104.555C338.063 104.771 337.692 104.983 337.32 105.192L344.658 109.456C345.029 109.247 345.401 109.035 345.774 108.82C347.966 107.554 350.139 106.209 352.292 104.784L344.954 100.52V100.52Z" fill="#63BDFE"/>
<path opacity="0.2" d="M358.198 90.5945C355.803 92.6066 353.372 94.5259 350.905 96.3523L358.243 100.616C360.708 98.7927 363.139 96.8734 365.536 94.8587L358.198 90.5945V90.5945Z" fill="#63BDFE"/>
<path opacity="0.2" d="M370.726 78.9122C368.476 81.2271 366.184 83.4626 363.847 85.6186L371.185 89.8829C373.52 87.7294 375.813 85.4939 378.063 83.1765L370.726 78.9122Z" fill="#63BDFE"/>
<path opacity="0.2" d="M385.845 153.012C383.453 153.744 381.1 154.345 378.785 154.813L386.115 159.073C388.429 158.604 390.782 158.004 393.176 157.272L385.845 153.012Z" fill="#63BDFE"/>
<path opacity="0.2" d="M399.079 147.76C396.565 148.979 394.082 150.062 391.629 151.008L398.96 155.268C401.411 154.321 403.894 153.239 406.41 152.02L399.079 147.76Z" fill="#63BDFE"/>
<path opacity="0.2" d="M394.067 129.061C391.915 130.484 389.743 131.83 387.549 133.097C387.177 133.312 386.805 133.524 386.433 133.733L412.465 148.845C412.837 148.636 413.209 148.424 413.581 148.209C415.774 146.943 417.946 145.598 420.099 144.173L394.067 129.062V129.061Z" fill="#63BDFE"/>
<path opacity="0.5" d="M407.311 119.136C404.916 121.148 402.485 123.067 400.019 124.894L426.05 140.006C428.516 138.182 430.946 136.263 433.343 134.248L407.311 119.136V119.136Z" fill="#63BDFE"/>
<path opacity="0.5" d="M438.54 118.305C436.291 120.62 433.998 122.856 431.661 125.012L438.992 129.272C441.327 127.119 443.62 124.883 445.871 122.566L438.54 118.305Z" fill="#63BDFE"/>
<path opacity="0.2" d="M399.478 160.935C397.086 161.667 394.733 162.267 392.418 162.736L399.755 167C402.069 166.531 404.423 165.93 406.816 165.199L399.478 160.935Z" fill="#63BDFE"/>
<path opacity="0.2" d="M412.712 155.682C410.198 156.902 407.715 157.985 405.262 158.93L412.6 163.195C415.051 162.248 417.534 161.165 420.05 159.946L412.712 155.682Z" fill="#63BDFE"/>
<path opacity="0.2" d="M426.401 147.836C424.249 149.259 422.077 150.604 419.883 151.871C419.511 152.086 419.139 152.299 418.767 152.508L426.105 156.772C426.476 156.563 426.848 156.351 427.221 156.136C429.413 154.87 431.586 153.525 433.739 152.1L426.401 147.836V147.836Z" fill="#63BDFE"/>
<path opacity="0.2" d="M439.645 137.91C437.25 139.923 434.819 141.842 432.353 143.668L439.69 147.932C442.156 146.108 444.586 144.189 446.983 142.174L439.645 137.91V137.91Z" fill="#63BDFE"/>
<path opacity="0.2" d="M452.173 126.228C449.924 128.543 447.631 130.778 445.294 132.935L452.632 137.199C454.967 135.045 457.26 132.81 459.511 130.492L452.173 126.228Z" fill="#63BDFE"/>
<path opacity="0.5" d="M451.814 103.391C450.545 104.811 449.289 106.264 448.046 107.751C447.126 108.851 446.196 109.939 445.256 111.014L452.587 115.274C453.526 114.199 454.456 113.112 455.376 112.011C456.619 110.524 457.875 109.071 459.145 107.651L451.814 103.391Z" fill="#63BDFE"/>
<path opacity="0.5" d="M465.447 111.314C464.178 112.733 462.922 114.186 461.679 115.673C460.758 116.774 459.829 117.862 458.889 118.937L466.227 123.201C467.166 122.126 468.096 121.038 469.016 119.937C470.259 118.451 471.515 116.998 472.785 115.578L465.447 111.314Z" fill="#63BDFE"/>
<path opacity="0.2" d="M343.956 115.742C341.442 116.961 338.959 118.044 336.506 118.99L343.844 123.254C346.295 122.308 348.778 121.225 351.294 120.006L343.956 115.742Z" fill="#63BDFE"/>
<path opacity="0.2" d="M357.024 123.336C354.51 124.556 352.026 125.638 349.574 126.584L385.327 147.345C387.778 146.399 390.261 145.316 392.777 144.097L357.024 123.336Z" fill="#63BDFE"/>
<path opacity="0.2" d="M370.713 115.49C368.561 116.912 366.388 118.258 364.195 119.525C363.822 119.74 363.451 119.952 363.079 120.161L380.131 130.071C380.502 129.862 380.874 129.65 381.247 129.435C383.44 128.169 385.612 126.824 387.765 125.399L370.713 115.49H370.713Z" fill="#63BDFE"/>
<path opacity="0.5" d="M383.957 105.564C381.562 107.576 379.131 109.495 376.664 111.322L393.716 121.231C396.182 119.408 398.612 117.488 401.009 115.473L383.957 105.564Z" fill="#63BDFE"/>
<path opacity="0.5" d="M396.485 93.8817C394.235 96.1966 391.943 98.4321 389.606 100.588L425.359 121.35C427.694 119.196 429.987 116.961 432.238 114.643L396.485 93.8817Z" fill="#63BDFE"/>
<path opacity="0.3" d="M409.759 78.9673C408.49 80.3869 407.233 81.8401 405.99 83.3268C405.07 84.4275 404.14 85.5154 403.201 86.5905L438.954 107.352C439.893 106.277 440.823 105.189 441.744 104.088C442.986 102.602 444.242 101.149 445.512 99.7286L409.759 78.9673H409.759Z" fill="#63BDFE"/>
<path opacity="0.3" d="M384 63.9978C382.731 65.4174 381.474 66.8706 380.231 68.3573C379.311 69.458 378.381 70.5459 377.442 71.621L397.471 83.2606C398.41 82.1857 399.34 81.0978 400.26 79.9969C401.503 78.5105 402.759 77.0573 404.029 75.6374L384 63.9978Z" fill="#63BDFE"/>
<path opacity="0.2" d="M357.645 107.895C355.493 109.318 353.321 110.663 351.127 111.931C350.755 112.146 350.383 112.358 350.011 112.567L357.349 116.831C357.72 116.622 358.092 116.41 358.465 116.195C360.658 114.929 362.83 113.584 364.983 112.16L357.645 107.895V107.895Z" fill="#63BDFE"/>
<path opacity="0.2" d="M370.889 97.9698C368.494 99.982 366.063 101.901 363.597 103.728L370.934 107.992C373.4 106.168 375.83 104.249 378.227 102.234L370.889 97.9698Z" fill="#63BDFE"/>
<path opacity="0.2" d="M383.417 86.2876C381.168 88.6025 378.875 90.838 376.538 92.994L383.876 97.2582C386.211 95.1047 388.504 92.8692 390.755 90.5518L383.417 86.2876V86.2876Z" fill="#63BDFE"/>
<path opacity="0.2" d="M306.395 124.01C304.099 124.059 301.808 124.256 299.537 124.598L361.991 160.876C364.262 160.534 366.553 160.338 368.849 160.288L306.395 124.01V124.01Z" fill="#63BDFE"/>
<path opacity="0.2" d="M375.151 163.951C372.855 164 370.564 164.196 368.293 164.539L392.197 178.43C394.469 178.088 396.759 177.892 399.055 177.842L375.151 163.951Z" fill="#63BDFE"/>
<path opacity="0.2" d="M399.792 171.061C397.601 171.321 395.397 171.457 393.19 171.47L404.273 177.911C406.48 177.898 408.684 177.762 410.875 177.502L399.792 171.061Z" fill="#63BDFE"/>
<path opacity="0.2" d="M412.3 168.385C409.907 169.118 407.554 169.718 405.239 170.187L416.322 176.627C418.636 176.158 420.989 175.558 423.383 174.826L412.299 168.385H412.3Z" fill="#63BDFE"/>
<path opacity="0.2" d="M425.534 163.133C423.019 164.353 420.536 165.436 418.083 166.381L429.167 172.822C431.618 171.876 434.101 170.793 436.617 169.574L425.534 163.133V163.133Z" fill="#63BDFE"/>
<path opacity="0.2" d="M439.223 155.287C437.071 156.71 434.898 158.055 432.704 159.322C432.332 159.537 431.96 159.75 431.589 159.959L442.672 166.399C443.043 166.19 443.415 165.978 443.788 165.763C445.98 164.497 448.153 163.152 450.306 161.728L439.223 155.287V155.287Z" fill="#63BDFE"/>
<path opacity="0.2" d="M452.466 145.361C450.071 147.373 447.641 149.293 445.174 151.119L456.257 157.56C458.722 155.736 461.153 153.817 463.549 151.802L452.466 145.361H452.466Z" fill="#63BDFE"/>
<path opacity="0.2" d="M464.994 133.679C462.745 135.994 460.452 138.229 458.115 140.385L469.199 146.826C471.534 144.673 473.827 142.437 476.077 140.12L464.994 133.679V133.679Z" fill="#63BDFE"/>
<path opacity="0.5" d="M478.269 118.765C476.999 120.184 475.743 121.637 474.5 123.124C473.58 124.225 472.65 125.313 471.71 126.388L482.793 132.829C483.733 131.754 484.663 130.666 485.583 129.565C486.826 128.078 488.082 126.625 489.352 125.205L478.269 118.765V118.765Z" fill="#63BDFE"/>
<path opacity="0.5" d="M465.853 89.5002C463.476 91.567 461.125 93.7484 458.8 96.0444L496.337 117.859C498.66 115.564 501.011 113.383 503.39 111.314L465.853 89.5002Z" fill="#63BDFE"/>
<path opacity="0.3" d="M398.039 50.107C395.662 52.1737 393.311 54.355 390.985 56.6511L452.498 92.382C454.82 90.0876 457.171 87.9062 459.551 85.8378L398.039 50.107Z" fill="#63BDFE"/>
<path opacity="0.2" d="M281.776 145.373C279.339 146.924 276.91 148.6 274.489 150.401L309.243 170.581C311.661 168.782 314.09 167.106 316.529 165.553L281.776 145.373Z" fill="#63BDFE"/>
<path opacity="0.2" d="M322.339 168.93C319.902 170.481 317.473 172.157 315.052 173.957L331.112 183.29C333.53 181.491 335.959 179.815 338.399 178.263L322.339 168.93Z" fill="#63BDFE"/>
<path opacity="0.2" d="M344.469 181.79C332.157 189.839 321.128 199.697 311.753 211.032L327.812 220.365C337.187 209.029 348.216 199.172 360.528 191.123L344.469 181.79Z" fill="#63BDFE"/>
<path opacity="0.2" d="M268.742 154.929C261.617 160.901 255.031 167.489 249.06 174.615L305.683 207.505C311.654 200.378 318.24 193.791 325.365 187.818L268.742 154.929Z" fill="#63BDFE"/>
<path opacity="0.3" d="M495.288 81.2765C491.081 83.7178 487.029 86.4163 483.155 89.3568L405.359 44.1627C409.233 41.2222 413.285 38.5237 417.492 36.0824L495.288 81.2765Z" fill="#63BDFE"/>
<path opacity="0.5" d="M522.844 97.29C518.637 99.7312 514.585 102.43 510.71 105.37L490.804 93.8022C494.679 90.8617 498.731 88.1631 502.938 85.7219L522.844 97.29V97.29Z" fill="#63BDFE"/>
<path opacity="0.4" d="M56.2107 290.437C51.9096 293.688 47.4144 296.675 42.7502 299.38L21.9388 287.285C26.603 284.58 31.0981 281.594 35.3992 278.342L56.2107 290.437V290.437Z" fill="#63BDFE"/>
<path opacity="0.4" d="M48.2883 267.478C45.9662 269.652 43.6043 271.74 41.2025 273.742L62.014 285.836C64.4143 283.836 66.7762 281.749 69.0998 279.572L48.2883 267.478H48.2883Z" fill="#63BDFE"/>
<path opacity="0.4" d="M60.3836 254.994C58.2221 257.445 56.0127 259.823 53.7555 262.13L61.0933 266.394C63.349 264.09 65.5583 261.711 67.7213 259.258L60.3836 254.994V254.994Z" fill="#63BDFE"/>
<path opacity="0.2" d="M73.0748 262.369C70.9133 264.82 68.7039 267.199 66.4468 269.505L159.107 323.337C161.363 321.033 163.572 318.655 165.735 316.201L73.0748 262.369V262.369Z" fill="#63BDFE"/>
<path opacity="0.4" d="M72.3431 241.544C70.0408 243.907 67.7752 246.379 65.5464 248.958L72.8841 253.223C75.1102 250.645 77.3758 248.173 79.6809 245.808L72.3431 241.544Z" fill="#63BDFE"/>
<path opacity="0.4" d="M85.0344 248.919C82.732 251.283 80.4664 253.754 78.2376 256.334L118.315 279.608C120.541 277.03 122.807 274.558 125.112 272.194L85.0344 248.919V248.919Z" fill="#63BDFE"/>
<path opacity="0.2" d="M130.806 275.503C128.503 277.866 126.238 280.337 124.009 282.917L170.898 310.166C173.124 307.588 175.39 305.116 177.695 302.752L130.805 275.503H130.806Z" fill="#63BDFE"/>
<path opacity="0.2" d="M85.0384 229.895C82.6388 231.849 80.2608 233.921 77.9045 236.109L85.2423 240.374C87.5957 238.186 89.9736 236.115 92.3762 234.159L85.0384 229.895Z" fill="#63BDFE"/>
<path opacity="0.4" d="M179.546 267.861C177.106 269.373 174.672 271.01 172.245 272.774L179.583 277.038C182.007 275.276 184.441 273.639 186.884 272.125L179.546 267.861Z" fill="#63BDFE"/>
<path opacity="0.4" d="M147.212 249.087C144.772 250.598 142.338 252.236 139.911 254L165.943 269.112C168.367 267.35 170.801 265.712 173.244 264.199L147.212 249.087V249.087Z" fill="#63BDFE"/>
<path opacity="0.4" d="M110.79 227.921C108.35 229.432 105.916 231.07 103.489 232.834L133.609 250.337C136.033 248.575 138.467 246.938 140.91 245.424L110.79 227.921V227.921Z" fill="#63BDFE"/>
<path opacity="0.2" d="M123.914 221.044C121.491 222.08 119.058 223.252 116.617 224.557L128.004 231.175C130.443 229.871 132.875 228.7 135.302 227.661L123.914 221.044V221.044Z" fill="#63BDFE"/>
<path opacity="0.2" d="M142.647 231.93C140.223 232.967 137.791 234.138 135.35 235.444L146.737 242.061C149.175 240.757 151.608 239.586 154.034 238.548L142.647 231.93V231.93Z" fill="#63BDFE"/>
<path opacity="0.2" d="M98.0987 220.545C95.6585 222.057 93.2248 223.695 90.7977 225.458L98.1354 229.722C100.56 227.96 102.993 226.323 105.436 224.809L98.0987 220.545V220.545Z" fill="#63BDFE"/>
<path opacity="0.2" d="M111.223 213.668C108.799 214.705 106.367 215.876 103.926 217.182L111.264 221.446C113.702 220.142 116.134 218.971 118.561 217.933L111.223 213.668V213.668Z" fill="#63BDFE"/>
<path opacity="0.2" d="M124.134 209.426C121.718 209.975 119.333 210.651 116.989 211.453L124.326 215.717C126.671 214.916 129.056 214.239 131.472 213.69L124.134 209.426Z" fill="#63BDFE"/>
<path opacity="0.2" d="M136.53 207.99C134.249 207.989 131.97 208.137 129.708 208.433L137.045 212.697C139.308 212.402 141.587 212.254 143.868 212.255L136.53 207.99V207.99Z" fill="#63BDFE"/>
<path opacity="0.2" d="M148.351 207.523C146.148 207.823 143.931 208 141.71 208.053L149.047 212.318C151.269 212.264 153.486 212.087 155.688 211.788L148.351 207.523Z" fill="#63BDFE"/>
<path opacity="0.2" d="M160.937 204.62C158.53 205.396 156.162 206.039 153.831 206.55L161.168 210.814C163.498 210.302 165.867 209.659 168.275 208.884L160.937 204.62V204.62Z" fill="#63BDFE"/>
<path opacity="0.4" d="M160.336 242.21C157.913 243.247 155.48 244.418 153.039 245.724L179.071 260.835C181.509 259.531 183.942 258.36 186.368 257.322L160.336 242.21H160.336Z" fill="#63BDFE"/>
<path opacity="0.4" d="M173.247 237.967C170.831 238.516 168.446 239.193 166.102 239.994L192.134 255.106C194.478 254.305 196.863 253.628 199.279 253.079L173.247 237.967Z" fill="#63BDFE"/>
<path opacity="0.4" d="M204.345 247.384C202.063 247.383 199.784 247.531 197.522 247.826L204.853 252.087C207.115 251.791 209.394 251.643 211.675 251.644L204.345 247.384V247.384Z" fill="#63BDFE"/>
<path opacity="0.2" d="M216.165 246.917C213.963 247.216 211.746 247.393 209.524 247.447L216.855 251.707C219.076 251.653 221.293 251.476 223.496 251.177L216.165 246.917Z" fill="#63BDFE"/>
<path opacity="0.2" d="M228.751 244.013C226.345 244.789 223.976 245.432 221.645 245.943L228.976 250.203C231.305 249.692 233.674 249.048 236.082 248.273L228.751 244.013V244.013Z" fill="#63BDFE"/>
<path opacity="0.4" d="M192.67 260.984C190.247 262.021 187.814 263.192 185.373 264.498L192.711 268.762C195.149 267.458 197.582 266.287 200.008 265.248L192.67 260.984V260.984Z" fill="#63BDFE"/>
<path opacity="0.4" d="M205.581 256.741C203.165 257.29 200.78 257.967 198.436 258.769L205.774 263.033C208.118 262.231 210.503 261.555 212.919 261.005L205.581 256.741H205.581Z" fill="#63BDFE"/>
<path opacity="0.2" d="M217.977 255.306C215.696 255.305 213.417 255.453 211.155 255.749L218.493 260.013C220.755 259.717 223.034 259.569 225.315 259.57L217.977 255.306Z" fill="#63BDFE"/>
<path opacity="0.2" d="M229.798 254.839C227.596 255.139 225.379 255.316 223.157 255.369L230.495 259.634C232.716 259.58 234.933 259.403 237.136 259.103L229.798 254.839V254.839Z" fill="#63BDFE"/>
<path opacity="0.2" d="M242.384 251.936C239.977 252.712 237.609 253.355 235.278 253.866L242.616 258.13C244.945 257.618 247.314 256.975 249.722 256.2L242.384 251.936H242.384Z" fill="#63BDFE"/>
<path opacity="0.2" d="M243.719 237.669C241.183 238.994 238.677 240.181 236.2 241.23L243.531 245.49C246.006 244.44 248.513 243.253 251.049 241.929L243.719 237.669Z" fill="#63BDFE"/>
<path opacity="0.2" d="M257.352 245.592C254.816 246.916 252.31 248.103 249.833 249.152L257.171 253.417C259.646 252.367 262.153 251.18 264.689 249.856L257.352 245.592V245.592Z" fill="#63BDFE"/>
<path opacity="0.2" d="M136.825 216.801C134.409 217.35 132.024 218.027 129.68 218.828L137.018 223.092C139.362 222.291 141.747 221.614 144.163 221.065L136.825 216.801Z" fill="#63BDFE"/>
<path opacity="0.2" d="M149.893 224.395C147.477 224.944 145.092 225.621 142.748 226.422L159.8 236.332C162.144 235.53 164.529 234.854 166.945 234.304L149.893 224.395V224.395Z" fill="#63BDFE"/>
<path opacity="0.2" d="M162.289 222.96C160.008 222.959 157.729 223.107 155.467 223.403L191.22 244.164C193.482 243.868 195.761 243.72 198.042 243.721L162.289 222.96Z" fill="#63BDFE"/>
<path opacity="0.2" d="M174.11 222.493C171.907 222.792 169.69 222.969 167.469 223.023L203.222 243.784C205.444 243.731 207.661 243.554 209.863 243.254L174.11 222.493V222.493Z" fill="#63BDFE"/>
<path opacity="0.2" d="M186.696 219.589C184.289 220.365 181.921 221.009 179.59 221.519L215.343 242.281C217.672 241.769 220.041 241.126 222.449 240.351L186.696 219.589Z" fill="#63BDFE"/>
<path opacity="0.2" d="M201.663 213.245C199.128 214.57 196.622 215.757 194.145 216.806L229.898 237.567C232.374 236.517 234.88 235.331 237.416 234.007L201.663 213.245Z" fill="#63BDFE"/>
<path opacity="0.2" d="M175.904 198.276C173.369 199.601 170.863 200.787 168.386 201.837L188.415 213.476C190.89 212.426 193.397 211.239 195.933 209.916L175.904 198.276Z" fill="#63BDFE"/>
<path opacity="0.2" d="M149.222 215.366C146.94 215.365 144.661 215.513 142.399 215.808L149.737 220.073C151.999 219.777 154.278 219.629 156.559 219.63L149.222 215.366V215.366Z" fill="#63BDFE"/>
<path opacity="0.2" d="M161.042 214.899C158.84 215.198 156.623 215.375 154.401 215.429L161.739 219.693C163.96 219.639 166.177 219.462 168.38 219.163L161.042 214.899Z" fill="#63BDFE"/>
<path opacity="0.2" d="M173.628 211.995C171.221 212.771 168.853 213.414 166.522 213.925L173.86 218.189C176.189 217.678 178.558 217.035 180.966 216.26L173.628 211.995V211.995Z" fill="#63BDFE"/>
<path opacity="0.4" d="M97.7296 237.27C95.33 239.224 92.952 241.296 90.5957 243.485L153.049 279.763C155.403 277.575 157.781 275.504 160.183 273.548L97.7296 237.27Z" fill="#63BDFE"/>
<path opacity="0.4" d="M166.486 277.21C164.086 279.165 161.708 281.236 159.352 283.425L183.256 297.317C185.61 295.13 187.988 293.058 190.39 291.102L166.486 277.21V277.21Z" fill="#63BDFE"/>
<path opacity="0.4" d="M192.367 275.312C189.927 276.824 187.493 278.461 185.066 280.225L196.149 286.666C198.574 284.904 201.007 283.266 203.45 281.753L192.367 275.312Z" fill="#63BDFE"/>
<path opacity="0.4" d="M205.492 268.435C203.068 269.472 200.636 270.643 198.194 271.949L209.277 278.39C211.716 277.086 214.148 275.914 216.575 274.876L205.492 268.435Z" fill="#63BDFE"/>
<path opacity="0.2" d="M218.403 264.192C215.987 264.741 213.602 265.418 211.257 266.22L222.34 272.66C224.685 271.859 227.07 271.182 229.486 270.633L218.403 264.192V264.192Z" fill="#63BDFE"/>
<path opacity="0.2" d="M230.799 262.757C228.517 262.756 226.238 262.904 223.976 263.2L235.059 269.641C237.321 269.345 239.6 269.197 241.882 269.198L230.799 262.757H230.799Z" fill="#63BDFE"/>
<path opacity="0.2" d="M242.619 262.29C240.417 262.59 238.2 262.767 235.978 262.82L247.061 269.261C249.283 269.207 251.5 269.03 253.702 268.731L242.619 262.29Z" fill="#63BDFE"/>
<path opacity="0.2" d="M255.205 259.387C252.799 260.163 250.43 260.806 248.099 261.316L259.182 267.757C261.512 267.246 263.88 266.603 266.288 265.827L255.205 259.387Z" fill="#63BDFE"/>
<path opacity="0.2" d="M270.173 253.043C267.638 254.367 265.131 255.554 262.654 256.603L273.737 263.044C276.213 261.994 278.719 260.807 281.256 259.484L270.173 253.043Z" fill="#63BDFE"/>
<path opacity="0.2" d="M259.027 228.165C256.549 229.95 254.04 231.634 251.501 233.215L289.038 255.029C291.576 253.451 294.085 251.767 296.564 249.979L259.027 228.165Z" fill="#63BDFE"/>
<path opacity="0.2" d="M191.213 188.772C188.734 190.557 186.226 192.241 183.687 193.822L245.199 229.553C247.736 227.974 250.245 226.29 252.725 224.503L191.213 188.772V188.772Z" fill="#63BDFE"/>
<path opacity="0.2" d="M74.8875 282.936C72.5655 285.109 70.2036 287.197 67.8018 289.199L102.555 309.38C104.955 307.38 107.317 305.292 109.641 303.116L74.8875 282.936V282.936Z" fill="#63BDFE"/>
<path opacity="0.2" d="M115.451 306.492C113.129 308.666 110.767 310.754 108.365 312.756L124.424 322.089C126.825 320.089 129.187 318.001 131.51 315.825L115.451 306.492V306.492Z" fill="#63BDFE"/>
<path opacity="0.2" d="M153.64 328.685C145.638 336.268 136.798 342.914 127.29 348.493L111.231 339.16C120.739 333.581 129.579 326.936 137.581 319.353L153.64 328.685V328.685Z" fill="#63BDFE"/>
<path opacity="0.2" d="M118.621 326.69C114.32 329.941 109.825 332.928 105.161 335.632L48.538 302.743C53.2021 300.038 57.6973 297.052 61.9985 293.8L118.621 326.69V326.69Z" fill="#63BDFE"/>
<path opacity="0.2" d="M217.405 165.007C211.623 171.469 205.364 177.488 198.682 183.014L276.478 228.208C283.16 222.682 289.419 216.663 295.201 210.202L217.405 165.007Z" fill="#63BDFE"/>
<path opacity="0.2" d="M302.85 214.647C297.068 221.108 290.81 227.127 284.127 232.653L304.033 244.221C310.716 238.696 316.974 232.677 322.756 226.215L302.85 214.647V214.647Z" fill="#63BDFE"/>
</g>
<path style="mix-blend-mode:lighten" opacity="0.4" d="M307.478 311.639C377.817 241.299 377.817 127.256 307.478 56.9164C237.138 -13.4234 123.095 -13.4234 52.7548 56.9164C-17.585 127.256 -17.585 241.299 52.7548 311.639C123.095 381.979 237.138 381.979 307.478 311.639Z" fill="url(#paint6_radial)"/>
<path style="mix-blend-mode:lighten" opacity="0.4" d="M508.03 311.639C578.37 241.299 578.37 127.256 508.03 56.9164C437.69 -13.4234 323.647 -13.4234 253.307 56.9164C182.967 127.256 182.967 241.299 253.307 311.639C323.647 381.979 437.69 381.979 508.03 311.639Z" fill="url(#paint7_radial)"/>
<path opacity="0.4" d="M280.177 326.082L280.171 323.654C280.979 323.652 281.785 323.644 282.59 323.63L282.631 326.058C281.815 326.072 280.997 326.08 280.177 326.082ZM274.058 325.998C273.243 325.972 272.429 325.942 271.618 325.907L271.723 323.481C272.525 323.516 273.327 323.546 274.13 323.57L274.058 325.998ZM288.747 325.86L288.627 323.434C289.434 323.395 290.24 323.35 291.044 323.298L291.197 325.722C290.38 325.773 289.564 325.819 288.747 325.86V325.86ZM265.512 325.537C264.699 325.475 263.887 325.407 263.078 325.333L263.298 322.915C264.096 322.988 264.897 323.055 265.7 323.118L265.512 325.537ZM297.297 325.236L297.065 322.82C297.868 322.742 298.669 322.658 299.469 322.57L299.739 324.982C298.927 325.073 298.113 325.157 297.297 325.236V325.236ZM256.997 324.678C256.187 324.577 255.38 324.469 254.575 324.357L254.91 321.953C255.704 322.063 256.5 322.168 257.299 322.268L256.997 324.678ZM305.81 324.207L305.46 321.805C306.26 321.689 307.058 321.567 307.853 321.441L308.234 323.839C307.427 323.967 306.619 324.09 305.81 324.207V324.207ZM248.531 323.41C247.728 323.269 246.926 323.124 246.128 322.973L246.577 320.586C247.366 320.735 248.156 320.878 248.949 321.017L248.531 323.41ZM314.261 322.77L313.798 320.387C314.59 320.233 315.381 320.073 316.169 319.908L316.666 322.285C315.867 322.452 315.065 322.613 314.261 322.77V322.77ZM240.137 321.735C239.34 321.556 238.547 321.372 237.755 321.181L238.322 318.82C239.102 319.007 239.884 319.189 240.669 319.366L240.137 321.735ZM322.634 320.923L322.054 318.566C322.837 318.372 323.619 318.174 324.399 317.971L325.01 320.321C324.221 320.526 323.429 320.727 322.634 320.923V320.923ZM231.832 319.65C231.045 319.431 230.262 319.208 229.481 318.98L230.162 316.65C230.933 316.874 231.706 317.095 232.481 317.31L231.832 319.65ZM330.909 318.667L330.211 316.341C330.985 316.11 331.756 315.873 332.525 315.631L333.251 317.948C332.472 318.193 331.691 318.433 330.909 318.667V318.667ZM223.639 317.158C222.864 316.901 222.092 316.639 221.323 316.371L222.121 314.079C222.879 314.342 223.639 314.6 224.403 314.853L223.639 317.158ZM339.058 316.003L338.248 313.714C339.006 313.446 339.763 313.171 340.517 312.89L341.365 315.165C340.599 315.451 339.83 315.73 339.058 316.003V316.003ZM215.58 314.261C214.819 313.964 214.062 313.663 213.307 313.359L214.219 311.109C214.963 311.411 215.71 311.707 216.46 311.998L215.58 314.261ZM347.065 312.934L346.139 310.69C346.884 310.382 347.626 310.07 348.364 309.752L349.327 311.981C348.576 312.305 347.822 312.623 347.065 312.934ZM207.675 310.959C206.931 310.625 206.189 310.287 205.452 309.944L206.475 307.743C207.203 308.08 207.935 308.414 208.669 308.745L207.675 310.959ZM354.905 309.463L353.866 307.268C354.595 306.923 355.321 306.573 356.042 306.218L357.113 308.398C356.38 308.757 355.644 309.112 354.905 309.463V309.463ZM199.949 307.262C199.222 306.89 198.499 306.514 197.779 306.134L198.914 303.988C199.624 304.363 200.337 304.733 201.054 305.1L199.949 307.262ZM362.56 305.596L361.41 303.457C362.122 303.075 362.829 302.688 363.532 302.296L364.712 304.417C363.999 304.815 363.281 305.208 362.56 305.596V305.596ZM192.42 303.173C191.713 302.764 191.011 302.351 190.313 301.935L191.559 299.851C192.247 300.262 192.939 300.669 193.636 301.072L192.42 303.173ZM370.009 301.338L368.749 299.262C369.439 298.844 370.124 298.421 370.805 297.993L372.098 300.047C371.406 300.483 370.709 300.913 370.009 301.338V301.338ZM185.12 298.7C184.435 298.254 183.754 297.805 183.079 297.351L184.432 295.335C185.097 295.782 185.767 296.224 186.441 296.662L185.12 298.7ZM377.223 296.694L375.856 294.688C376.522 294.234 377.184 293.775 377.841 293.311L379.24 295.295C378.573 295.766 377.901 296.232 377.223 296.694V296.694ZM178.062 293.842C177.403 293.362 176.748 292.877 176.098 292.388L177.557 290.447C178.198 290.929 178.843 291.407 179.493 291.881L178.062 293.842ZM384.182 291.668L382.706 289.741C383.347 289.249 383.984 288.755 384.615 288.257L386.119 290.163C385.477 290.669 384.832 291.171 384.182 291.668ZM171.278 288.612C170.645 288.095 170.017 287.575 169.395 287.05L170.958 285.193C171.572 285.709 172.19 286.222 172.813 286.731L171.278 288.612ZM390.853 286.272L389.275 284.426C389.888 283.902 390.496 283.374 391.098 282.842L392.706 284.662C392.093 285.203 391.476 285.739 390.853 286.272V286.272ZM164.79 283.013C164.186 282.462 163.588 281.908 162.996 281.35L164.66 279.582C165.244 280.131 165.833 280.677 166.427 281.22L164.79 283.013ZM397.216 280.512L395.539 278.758C396.12 278.202 396.696 277.641 397.267 277.076L398.976 278.8C398.396 279.375 397.809 279.946 397.216 280.512V280.512ZM158.623 277.062C158.051 276.478 157.485 275.89 156.924 275.298L158.687 273.628C159.238 274.21 159.795 274.789 160.358 275.363L158.623 277.062ZM403.248 274.404L401.47 272.749C402.02 272.16 402.564 271.566 403.103 270.969L404.906 272.596C404.359 273.203 403.806 273.805 403.248 274.404V274.404ZM152.802 270.768C152.265 270.153 151.734 269.534 151.207 268.911L153.063 267.344C153.58 267.957 154.103 268.567 154.631 269.172L152.802 270.768ZM408.918 267.96L407.048 266.41C407.563 265.789 408.072 265.166 408.576 264.538L410.468 266.06C409.957 266.697 409.44 267.33 408.918 267.96V267.96ZM147.354 264.15C146.853 263.503 146.358 262.854 145.87 262.202L147.813 260.746C148.294 261.388 148.781 262.026 149.273 262.662L147.354 264.15ZM414.205 261.198L412.249 259.758C412.726 259.11 413.196 258.458 413.661 257.804L415.643 259.206C415.17 259.873 414.691 260.537 414.205 261.198V261.198ZM142.299 257.218L141.979 256.749C141.626 256.229 141.277 255.708 140.933 255.187L142.959 253.849C143.298 254.363 143.641 254.874 143.987 255.384L144.306 255.851L142.299 257.218ZM419.085 254.134L417.045 252.816C417.483 252.139 417.915 251.46 418.34 250.778L420.401 252.063C419.968 252.756 419.53 253.447 419.085 254.134V254.134ZM137.667 250.002C137.247 249.3 136.833 248.596 136.426 247.891L138.529 246.678C138.93 247.372 139.337 248.065 139.75 248.754L137.667 250.002ZM423.534 246.788L421.418 245.595C421.815 244.893 422.204 244.189 422.586 243.484L424.721 244.64C424.332 245.358 423.937 246.074 423.534 246.788V246.788ZM133.482 242.516C133.104 241.79 132.734 241.063 132.372 240.332L134.545 239.25C134.902 239.968 135.266 240.684 135.636 241.397L133.482 242.516ZM427.522 239.184L425.338 238.123C425.689 237.4 426.033 236.674 426.372 235.945L428.575 236.964C428.231 237.708 427.88 238.447 427.522 239.184V239.184ZM129.766 234.784C129.435 234.035 129.111 233.285 128.794 232.534L131.032 231.59C131.343 232.33 131.661 233.066 131.986 233.801L129.766 234.784ZM431.029 231.343L428.783 230.423C429.087 229.679 429.385 228.932 429.676 228.183L431.94 229.064C431.643 229.826 431.339 230.585 431.029 231.343V231.343ZM126.545 226.83C126.262 226.063 125.986 225.293 125.718 224.521L128.012 223.724C128.274 224.482 128.545 225.237 128.823 225.991L126.545 226.83ZM434.029 223.295L431.728 222.522C431.984 221.759 432.233 220.995 432.476 220.23L434.791 220.962C434.545 221.742 434.291 222.519 434.029 223.295V223.295ZM123.838 218.686C123.605 217.9 123.38 217.113 123.162 216.327L125.502 215.68C125.716 216.453 125.937 217.224 126.166 217.995L123.838 218.686ZM436.506 215.072L434.161 214.447C434.368 213.67 434.567 212.893 434.758 212.114L437.116 212.694C436.92 213.488 436.717 214.28 436.506 215.072V215.072ZM121.665 210.379C121.484 209.582 121.311 208.784 121.145 207.983L123.521 207.489C123.685 208.275 123.855 209.059 124.033 209.842L121.665 210.379ZM438.442 206.703L436.059 206.236C436.214 205.447 436.362 204.657 436.502 203.868L438.893 204.291C438.75 205.096 438.6 205.9 438.442 206.703V206.703ZM120.041 201.949C119.913 201.141 119.792 200.332 119.679 199.521L122.084 199.185C122.195 199.98 122.313 200.774 122.439 201.566L120.041 201.949ZM439.822 198.226L437.414 197.915C437.473 197.458 437.529 197.001 437.582 196.544L437.7 195.523L440.114 195.79L439.994 196.83C439.939 197.296 439.882 197.761 439.822 198.226V198.226ZM118.978 193.425C118.903 192.61 118.837 191.794 118.778 190.979L121.2 190.805C121.257 191.605 121.323 192.405 121.395 193.204L118.978 193.425ZM440.636 189.675L438.212 189.527C438.262 188.725 438.304 187.923 438.337 187.121L440.763 187.223C440.729 188.04 440.687 188.858 440.636 189.675V189.675ZM118.483 184.853C118.463 184.034 118.451 183.215 118.447 182.397L120.875 182.385C120.879 183.188 120.891 183.99 120.911 184.792L118.483 184.853ZM438.451 181.102C438.447 180.299 438.435 179.497 438.415 178.696L440.842 178.635C440.863 179.453 440.875 180.271 440.878 181.09L438.451 181.102ZM120.989 176.366L118.563 176.264C118.598 175.446 118.641 174.628 118.691 173.811L121.115 173.961C121.065 174.763 121.023 175.565 120.989 176.366V176.366ZM438.125 172.683C438.068 171.882 438.002 171.082 437.929 170.282L440.347 170.063C440.421 170.877 440.488 171.692 440.547 172.507L438.125 172.683ZM121.63 167.963L119.217 167.698C119.306 166.885 119.403 166.073 119.508 165.261L121.916 165.572C121.813 166.37 121.718 167.167 121.63 167.963V167.963ZM437.24 164.302C437.128 163.508 437.01 162.714 436.883 161.92L439.282 161.537C439.411 162.347 439.531 163.157 439.644 163.966L437.24 164.302ZM122.829 159.62L120.438 159.196C120.582 158.392 120.732 157.588 120.89 156.785L123.272 157.253C123.117 158.042 122.969 158.831 122.829 159.62V159.62ZM435.801 155.997C435.638 155.212 435.468 154.428 435.291 153.644L437.658 153.107C437.839 153.905 438.013 154.704 438.178 155.505L435.801 155.997ZM124.573 151.374L122.215 150.794C122.41 150 122.613 149.208 122.823 148.416L125.17 149.039C124.963 149.817 124.765 150.595 124.573 151.374V151.374ZM433.822 147.804C433.61 147.032 433.39 146.26 433.161 145.49L435.489 144.8C435.721 145.584 435.946 146.371 436.164 147.16L433.822 147.804ZM126.848 143.255L124.533 142.525C124.778 141.745 125.031 140.968 125.291 140.192L127.594 140.963C127.338 141.726 127.089 142.49 126.848 143.255H126.848ZM431.32 139.748L431.279 139.627C431.011 138.859 430.742 138.102 430.464 137.347L432.744 136.511C433.025 137.278 433.3 138.048 433.569 138.823L433.619 138.965L431.32 139.748ZM129.635 135.296L127.371 134.421C127.666 133.658 127.967 132.898 128.274 132.143L130.523 133.057C130.221 133.8 129.925 134.547 129.635 135.296H129.635ZM428.261 131.741C427.95 130.998 427.632 130.26 427.308 129.525L429.531 128.546C429.86 129.294 430.183 130.046 430.499 130.801L428.261 131.741ZM132.916 127.532L130.711 126.516C131.054 125.773 131.402 125.034 131.756 124.299L133.943 125.354C133.595 126.076 133.253 126.802 132.916 127.532V127.532ZM424.756 124.068C424.399 123.346 424.036 122.629 423.668 121.915L425.824 120.8C426.2 121.526 426.569 122.256 426.932 122.99L424.756 124.068ZM136.679 119.989L134.541 118.838C134.928 118.118 135.322 117.401 135.722 116.689L137.839 117.878C137.446 118.577 137.06 119.28 136.679 119.989ZM420.781 116.63C420.378 115.932 419.971 115.239 419.56 114.551L421.642 113.303C422.062 114.003 422.476 114.709 422.884 115.419L420.781 116.63ZM140.902 112.691L138.84 111.41C139.271 110.715 139.708 110.025 140.15 109.339L142.19 110.656C141.756 111.329 141.327 112.008 140.902 112.691V112.691ZM416.351 109.45C415.908 108.778 415.459 108.111 415.006 107.449L417.008 106.076C417.47 106.749 417.927 107.428 418.378 108.112L416.351 109.45ZM145.564 105.665L143.584 104.261C144.057 103.594 144.535 102.932 145.018 102.274L146.975 103.711C146.499 104.358 146.029 105.009 145.564 105.665V105.665ZM411.494 102.552C411.01 101.908 410.522 101.268 410.03 100.634L411.948 99.1459C412.448 99.7905 412.944 100.44 413.435 101.095L411.494 102.552ZM150.644 98.9321L148.75 97.4125C149.262 96.7748 149.779 96.142 150.3 95.5141L152.168 97.0649C151.655 97.683 151.147 98.3054 150.644 98.9321V98.9321ZM406.23 95.9555C405.802 95.4506 405.372 94.9496 404.938 94.4526L404.652 94.1235L406.488 92.5356L406.77 92.8598C407.208 93.3618 407.648 93.8725 408.083 94.3871L406.23 95.9555ZM156.115 92.5092L154.313 90.8823C154.861 90.2748 155.414 89.6729 155.972 89.0766L157.746 90.7348C157.197 91.3217 156.654 91.9132 156.115 92.5092V92.5092ZM400.588 89.6821C400.034 89.1 399.474 88.5225 398.911 87.9496L400.641 86.2465C401.213 86.8276 401.782 87.4142 402.346 88.0063L400.588 89.6821ZM161.951 86.4145L160.246 84.686C160.827 84.1118 161.413 83.5428 162.004 82.9789L163.681 84.7348C163.1 85.2895 162.523 85.8494 161.951 86.4145V86.4145ZM394.596 83.7407C394.008 83.1909 393.417 82.646 392.823 82.1059L394.454 80.3071C395.058 80.8559 395.658 81.4093 396.254 81.9672L394.596 83.7407ZM168.124 80.6586L166.519 78.8364C167.131 78.2973 167.748 77.7625 168.369 77.2319L169.946 79.0776C169.334 79.6 168.727 80.127 168.124 80.6586V80.6586ZM388.275 78.143C387.66 77.6264 387.04 77.115 386.415 76.6088L387.944 74.7221C388.579 75.2377 389.209 75.7576 389.835 76.2817L388.275 78.143ZM174.608 75.2543L173.105 73.3481C173.747 72.8422 174.392 72.3412 175.04 71.8452L176.515 73.7748C175.875 74.2631 175.24 74.7563 174.608 75.2543V75.2543ZM381.659 72.9008C381.016 72.4184 380.369 71.9415 379.717 71.4702L381.142 69.5034C381.804 69.9828 382.462 70.4675 383.116 70.9575L381.659 72.9008ZM181.377 70.2065L179.979 68.2221C180.646 67.7514 181.317 67.2859 181.992 66.8256L183.361 68.8315C182.696 69.2846 182.035 69.7429 181.377 70.2065V70.2065ZM374.766 68.02C374.098 67.5727 373.427 67.1306 372.751 66.6938L374.07 64.6547C374.756 65.0991 375.439 65.5483 376.118 66.0024L374.766 68.02ZM188.405 65.5258L187.115 63.4692C187.807 63.0356 188.501 62.6069 189.198 62.183L190.459 64.2573C189.771 64.6752 189.087 65.098 188.405 65.5258V65.5258ZM367.628 63.5112C366.936 63.1 366.241 62.6934 365.543 62.2914L366.756 60.1879C367.464 60.5961 368.168 61.0085 368.869 61.4252L367.628 63.5112ZM195.672 61.2221L194.49 59.101C195.202 58.7036 195.918 58.3114 196.637 57.9243L197.79 60.061C197.081 60.4438 196.375 60.8308 195.672 61.2221V61.2221ZM360.26 59.3803C359.549 59.0053 358.835 58.6352 358.118 58.27L359.217 56.1059C359.946 56.476 360.671 56.8513 361.393 57.2319L360.26 59.3803ZM203.154 57.2983L202.08 55.1205C202.811 54.7592 203.547 54.4037 204.286 54.0541L205.327 56.2475C204.599 56.5922 203.875 56.9425 203.154 57.2983V57.2983ZM352.691 55.6323C351.962 55.2934 351.23 54.9604 350.495 54.6332L351.483 52.4145C352.23 52.7475 352.973 53.0857 353.712 53.4291L352.691 55.6323ZM210.823 53.7592L209.863 51.5287C210.612 51.2065 211.364 50.8891 212.118 50.5766L213.048 52.8188C212.304 53.1274 211.563 53.4409 210.823 53.7592ZM344.942 52.2709C344.197 51.9702 343.449 51.6747 342.699 51.3842L343.574 49.1186C344.335 49.4135 345.095 49.7143 345.852 50.0209L344.942 52.2709ZM218.662 50.6098L217.816 48.3344C218.581 48.0502 219.347 47.7706 220.115 47.4955L220.931 49.7827C220.173 50.0532 219.417 50.3289 218.662 50.6098ZM337.033 49.3012C336.273 49.0375 335.511 48.7787 334.747 48.5248L335.512 46.2202C336.287 46.478 337.059 46.7407 337.83 47.0082L337.033 49.3012ZM226.65 47.8549L225.916 45.5405C226.693 45.2934 227.473 45.0519 228.255 44.8159L228.957 47.1401C228.186 47.3725 227.417 47.6108 226.65 47.8549ZM328.986 46.727C328.214 46.5014 327.441 46.281 326.666 46.0659L327.312 43.726C328.099 43.9428 328.884 44.1664 329.667 44.3969L328.986 46.727ZM234.766 45.4975L234.145 43.1498C234.933 42.9418 235.724 42.739 236.518 42.5414L237.104 44.8969C236.322 45.0922 235.543 45.2924 234.766 45.4975V45.4975ZM320.822 44.5551C320.041 44.3676 319.258 44.1853 318.47 44.0082L319.005 41.6391C319.802 41.8198 320.597 42.0047 321.388 42.1938L320.822 44.5551ZM242.984 43.5414L242.483 41.1664C243.28 40.9975 244.08 40.8338 244.881 40.6752L245.352 43.058C244.561 43.2143 243.771 43.3754 242.984 43.5414ZM312.56 42.7836C311.771 42.6352 310.979 42.4917 310.185 42.353L310.603 39.9604C311.409 40.101 312.211 40.2472 313.011 40.3989L312.56 42.7836ZM251.293 41.9897L250.906 39.5932C251.711 39.4633 252.518 39.3386 253.327 39.2192L253.68 41.6215C252.882 41.7387 252.087 41.8614 251.293 41.9897ZM304.223 41.4164C303.427 41.3061 302.629 41.2003 301.83 41.0991L302.132 38.6909C302.944 38.7924 303.752 38.8995 304.557 39.0121L304.223 41.4164ZM259.668 40.8422L259.393 38.4301C260.203 38.3373 261.015 38.251 261.83 38.1713L262.069 40.5873C261.267 40.6664 260.467 40.7514 259.668 40.8422V40.8422ZM295.828 40.4516C295.028 40.3784 294.226 40.3107 293.421 40.2485L293.611 37.8286C294.424 37.892 295.237 37.9603 296.048 38.0336L295.828 40.4516ZM268.085 40.0971L267.927 37.6733C268.741 37.6205 269.556 37.5733 270.373 37.5317L270.498 39.9555C269.692 39.9975 268.888 40.0447 268.085 40.0971V40.0971ZM287.397 39.8881C286.595 39.853 285.791 39.824 284.986 39.8012L285.056 37.3735C285.874 37.3979 286.689 37.4275 287.502 37.4623L287.397 39.8881ZM276.531 39.7485L276.488 37.3207C277.302 37.3061 278.119 37.2973 278.938 37.2944L278.946 39.7221C278.139 39.725 277.334 39.7338 276.531 39.7485V39.7485Z" fill="#73CFFE"/>
<path d="M281.747 302.577L281.729 301.364L282.95 301.342L282.975 302.555L281.747 302.577ZM263.39 301.729L262.175 301.595L262.313 300.388L263.519 300.522L263.39 301.729ZM301.286 301.061L301.114 299.86C301.516 299.802 301.918 299.743 302.319 299.682L302.503 300.881C302.097 300.944 301.692 301.004 301.286 301.061V301.061ZM244.088 298.373C243.691 298.277 243.295 298.179 242.9 298.079L243.198 296.901C243.589 297 243.982 297.098 244.375 297.193L244.088 298.373ZM320.462 297L320.13 295.833L321.302 295.495L321.642 296.662L320.462 297ZM225.407 292.464C225.027 292.315 224.648 292.164 224.27 292.012L224.723 290.885C225.097 291.037 225.473 291.186 225.85 291.333L225.407 292.464ZM338.915 290.393L338.43 289.28C338.801 289.118 339.172 288.954 339.542 288.787L340.04 289.895C339.667 290.063 339.292 290.229 338.915 290.393V290.393ZM207.711 284.049L206.65 283.444L207.255 282.391L208.309 282.993L207.711 284.049ZM356.28 281.295L355.641 280.262L356.675 279.618L357.322 280.645L356.28 281.295ZM191.389 273.209L190.426 272.456L191.178 271.503L192.133 272.25L191.389 273.209ZM372.164 269.795L371.378 268.87C371.689 268.607 371.998 268.343 372.305 268.079L373.097 268.998C372.788 269.265 372.476 269.531 372.164 269.795V269.795ZM176.852 260.065L176.015 259.173L176.903 258.345L177.734 259.231L176.852 260.065ZM386.132 256.037L385.216 255.241C385.483 254.935 385.747 254.627 386.01 254.319L386.934 255.106C386.669 255.418 386.401 255.729 386.132 256.037ZM164.53 244.819L163.844 243.804L164.852 243.128L165.533 244.135L164.53 244.819ZM397.77 240.251L396.739 239.613C396.953 239.267 397.164 238.921 397.374 238.575L398.413 239.204C398.201 239.554 397.987 239.903 397.77 240.251ZM154.844 227.772C154.672 227.4 154.503 227.028 154.337 226.656L155.444 226.16C155.609 226.528 155.776 226.895 155.946 227.262L154.844 227.772ZM406.651 222.763L405.526 222.31C405.677 221.934 405.827 221.556 405.974 221.179L407.105 221.623C406.956 222.003 406.804 222.384 406.651 222.763ZM148.207 209.323C148.103 208.927 148.001 208.531 147.901 208.134L149.079 207.839C149.178 208.231 149.278 208.622 149.381 209.014L148.207 209.323ZM412.378 204.006L411.19 203.756C411.273 203.361 411.355 202.965 411.432 202.569L412.624 202.801C412.544 203.204 412.462 203.605 412.378 204.006V204.006ZM144.943 189.985C144.912 189.577 144.882 189.168 144.856 188.759L146.068 188.681C146.094 189.084 146.123 189.489 146.153 189.891L144.943 189.985ZM414.664 184.526L413.451 184.495C413.461 184.089 413.47 183.685 413.475 183.281L414.688 183.298C414.682 183.707 414.674 184.117 414.664 184.526ZM146.436 170.5L145.229 170.372C145.272 169.965 145.318 169.559 145.366 169.152L146.572 169.294C146.524 169.697 146.479 170.099 146.436 170.5ZM412.184 165.144C412.121 164.745 412.056 164.345 411.989 163.945L413.186 163.744C413.253 164.148 413.319 164.552 413.383 164.954L412.184 165.144ZM150.212 151.474L149.045 151.134C149.16 150.742 149.277 150.348 149.397 149.956L150.558 150.31C150.441 150.698 150.325 151.086 150.212 151.474ZM407.474 146.325L407.434 146.209C407.301 145.825 407.166 145.442 407.029 145.063L408.171 144.651C408.31 145.036 408.446 145.422 408.581 145.81L408.623 145.932L407.474 146.325ZM157.245 133.392L156.155 132.857C156.336 132.49 156.518 132.124 156.702 131.76L157.786 132.307C157.604 132.667 157.423 133.029 157.245 133.392V133.392ZM399.522 128.488C399.326 128.133 399.128 127.779 398.928 127.426L399.985 126.829C400.186 127.185 400.386 127.542 400.585 127.9L399.522 128.488ZM167.243 116.764L166.258 116.053C166.498 115.722 166.738 115.392 166.98 115.064L167.958 115.783C167.718 116.109 167.48 116.436 167.243 116.764ZM388.743 112.349C388.491 112.031 388.237 111.715 387.982 111.402L388.925 110.636C389.182 110.954 389.438 111.273 389.694 111.593L388.743 112.349ZM179.829 101.989L178.972 101.129C179.26 100.841 179.551 100.554 179.842 100.267L180.693 101.134C180.403 101.417 180.115 101.702 179.829 101.989ZM375.495 98.1547C375.196 97.8803 374.896 97.6088 374.594 97.3373L375.407 96.435C375.711 96.7084 376.014 96.9838 376.315 97.2602L375.495 98.1547ZM194.562 89.3354L193.842 88.3569C194.171 88.1147 194.501 87.8738 194.832 87.6342L195.543 88.6186C195.215 88.8559 194.888 89.0948 194.562 89.3354ZM360.235 86.1391L359.223 85.4633L359.893 84.4516L360.913 85.1313L360.235 86.1391ZM210.993 78.9711L210.419 77.9008C210.779 77.7075 211.14 77.5161 211.503 77.3266L212.067 78.4008C211.708 78.5893 211.35 78.7794 210.993 78.9711ZM343.394 76.4496C343.029 76.2729 342.664 76.0981 342.298 75.9252L342.818 74.8276C343.187 75.0024 343.556 75.1791 343.923 75.3578L343.394 76.4496ZM228.717 71.0053L228.297 69.8666L229.45 69.4467L229.86 70.5893L228.717 71.0053ZM325.371 69.186L324.213 68.8139L324.581 67.6577L325.748 68.0317L325.371 69.186ZM247.365 65.5229L247.099 64.3373C247.499 64.2485 247.899 64.1613 248.299 64.0756L248.552 65.2631C248.155 65.3471 247.76 65.4337 247.365 65.5229V65.5229ZM306.532 64.4213C306.134 64.3491 305.736 64.2781 305.337 64.2084L305.545 63.0131C305.947 63.0825 306.349 63.1541 306.751 63.228L306.532 64.4213ZM266.576 62.5668L266.47 61.3578L267.693 61.2553L267.789 62.4662L266.576 62.5668ZM287.225 62.1889C286.822 62.1684 286.418 62.1498 286.013 62.1332L286.062 60.9203C286.47 60.937 286.878 60.9555 287.286 60.976L287.225 62.1889Z" fill="#66C6FE"/>
<path d="M202.356 0H357.719C364.552 0 371.104 2.71417 375.936 7.54543C380.767 12.3767 383.481 18.9293 383.481 25.7617V339.659C383.481 346.492 380.767 353.044 375.935 357.875C371.104 362.707 364.552 365.421 357.719 365.421H202.356C195.523 365.421 188.971 362.707 184.14 357.875C179.308 353.044 176.594 346.492 176.594 339.659V25.7618C176.594 18.9293 179.308 12.3767 184.14 7.54546C188.971 2.71418 195.523 0 202.356 0V0Z" fill="#A0F2FE"/>
<path d="M356.233 4.1616H203.842C191.092 4.1616 180.756 14.4978 180.756 27.2481V338.173C180.756 350.923 191.092 361.259 203.842 361.259H356.233C368.983 361.259 379.319 350.923 379.319 338.173V27.2481C379.319 14.4978 368.983 4.1616 356.233 4.1616Z" fill="url(#paint8_radial)"/>
<path d="M294.746 14.9835H265.329C265.113 14.9835 264.9 14.9411 264.701 14.8586C264.502 14.7762 264.321 14.6554 264.169 14.5031C264.017 14.3508 263.896 14.17 263.814 13.971C263.731 13.772 263.689 13.5587 263.689 13.3433C263.689 12.9083 263.861 12.4911 264.169 12.1835C264.477 11.8759 264.894 11.7031 265.329 11.7031H294.746C295.181 11.7031 295.598 11.8759 295.906 12.1835C296.213 12.4911 296.386 12.9083 296.386 13.3433V13.3433C296.386 13.5587 296.344 13.772 296.261 13.971C296.179 14.17 296.058 14.3508 295.906 14.5031C295.754 14.6554 295.573 14.7762 295.374 14.8587C295.175 14.9411 294.961 14.9835 294.746 14.9835V14.9835Z" fill="#340D58"/>
<path d="M169.335 29.106C170.275 29.106 171.036 28.3447 171.036 27.4057C171.036 26.4666 170.275 25.7054 169.335 25.7054C168.396 25.7054 167.635 26.4666 167.635 27.4057C167.635 28.3447 168.396 29.106 169.335 29.106Z" fill="#A0F2FE"/>
<path opacity="0.8" d="M163.157 29.106C164.096 29.106 164.857 28.3447 164.857 27.4057C164.857 26.4666 164.096 25.7054 163.157 25.7054C162.218 25.7054 161.457 26.4666 161.457 27.4057C161.457 28.3447 162.218 29.106 163.157 29.106Z" fill="#A0F2FE"/>
<path opacity="0.6" d="M156.979 29.106C157.918 29.106 158.679 28.3447 158.679 27.4057C158.679 26.4666 157.918 25.7054 156.979 25.7054C156.04 25.7054 155.278 26.4666 155.278 27.4057C155.278 28.3447 156.04 29.106 156.979 29.106Z" fill="#A0F2FE"/>
<path opacity="0.4" d="M150.8 29.106C151.739 29.106 152.501 28.3447 152.501 27.4057C152.501 26.4666 151.739 25.7054 150.8 25.7054C149.861 25.7054 149.1 26.4666 149.1 27.4057C149.1 28.3447 149.861 29.106 150.8 29.106Z" fill="#A0F2FE"/>
<path opacity="0.2" d="M144.622 29.106C145.561 29.106 146.322 28.3447 146.322 27.4057C146.322 26.4666 145.561 25.7054 144.622 25.7054C143.683 25.7054 142.921 26.4666 142.921 27.4057C142.921 28.3447 143.683 29.106 144.622 29.106Z" fill="#A0F2FE"/>
<path d="M169.335 62.5077C170.275 62.5077 171.036 61.7464 171.036 60.8074C171.036 59.8683 170.275 59.1071 169.335 59.1071C168.396 59.1071 167.635 59.8683 167.635 60.8074C167.635 61.7464 168.396 62.5077 169.335 62.5077Z" fill="#A0F2FE"/>
<path opacity="0.8" d="M163.157 62.5077C164.096 62.5077 164.857 61.7464 164.857 60.8074C164.857 59.8683 164.096 59.1071 163.157 59.1071C162.218 59.1071 161.457 59.8683 161.457 60.8074C161.457 61.7464 162.218 62.5077 163.157 62.5077Z" fill="#A0F2FE"/>
<path opacity="0.6" d="M156.979 62.5077C157.918 62.5077 158.679 61.7464 158.679 60.8074C158.679 59.8683 157.918 59.1071 156.979 59.1071C156.04 59.1071 155.278 59.8683 155.278 60.8074C155.278 61.7464 156.04 62.5077 156.979 62.5077Z" fill="#A0F2FE"/>
<path opacity="0.4" d="M150.8 62.5077C151.739 62.5077 152.501 61.7464 152.501 60.8074C152.501 59.8683 151.739 59.1071 150.8 59.1071C149.861 59.1071 149.1 59.8683 149.1 60.8074C149.1 61.7464 149.861 62.5077 150.8 62.5077Z" fill="#A0F2FE"/>
<path opacity="0.2" d="M144.622 62.5077C145.561 62.5077 146.322 61.7464 146.322 60.8074C146.322 59.8683 145.561 59.1071 144.622 59.1071C143.683 59.1071 142.921 59.8683 142.921 60.8074C142.921 61.7464 143.683 62.5077 144.622 62.5077Z" fill="#A0F2FE"/>
<path d="M391.176 352.524C392.116 352.524 392.877 351.763 392.877 350.824C392.877 349.885 392.116 349.124 391.176 349.124C390.237 349.124 389.476 349.885 389.476 350.824C389.476 351.763 390.237 352.524 391.176 352.524Z" fill="#A0F2FE"/>
<path opacity="0.8" d="M397.355 352.524C398.294 352.524 399.055 351.763 399.055 350.824C399.055 349.885 398.294 349.124 397.355 349.124C396.416 349.124 395.655 349.885 395.655 350.824C395.655 351.763 396.416 352.524 397.355 352.524Z" fill="#A0F2FE"/>
<path opacity="0.6" d="M403.533 352.524C404.472 352.524 405.234 351.763 405.234 350.824C405.234 349.885 404.472 349.124 403.533 349.124C402.594 349.124 401.833 349.885 401.833 350.824C401.833 351.763 402.594 352.524 403.533 352.524Z" fill="#A0F2FE"/>
<path opacity="0.4" d="M409.712 352.524C410.651 352.524 411.412 351.763 411.412 350.824C411.412 349.885 410.651 349.124 409.712 349.124C408.773 349.124 408.012 349.885 408.012 350.824C408.012 351.763 408.773 352.524 409.712 352.524Z" fill="#A0F2FE"/>
<path opacity="0.2" d="M415.89 352.524C416.829 352.524 417.591 351.763 417.591 350.824C417.591 349.885 416.829 349.124 415.89 349.124C414.951 349.124 414.19 349.885 414.19 350.824C414.19 351.763 414.951 352.524 415.89 352.524Z" fill="#A0F2FE"/>
<g opacity="0.15">
<path opacity="0.15" d="M266.345 249.291L267.517 249.138C267.648 249.043 267.784 248.954 267.924 248.874L358.442 196.613C360.781 195.263 364.866 195.432 367.567 196.991L420.373 227.479C420.993 227.821 421.541 228.279 421.986 228.83L422.607 228.648V230.474L422.602 230.475C422.568 230.96 422.404 231.427 422.127 231.827C421.85 232.227 421.47 232.545 421.028 232.747L330.51 285.008C328.172 286.358 324.086 286.189 321.386 284.63L268.579 254.142C267.07 253.271 266.315 252.15 266.348 251.095L266.345 251.095V249.291Z" fill="#9FFFF8"/>
<path opacity="0.15" d="M330.51 283.175L421.028 230.915C423.367 229.565 423.074 227.206 420.373 225.647L367.567 195.159C364.866 193.6 360.781 193.43 358.442 194.781L267.924 247.041C265.585 248.392 265.879 250.75 268.579 252.309L321.386 282.797C324.086 284.356 328.172 284.526 330.51 283.175Z" fill="#42E8E0"/>
<path opacity="0.15" d="M391.474 236.635L402.65 230.183C403.69 229.583 403.559 228.534 402.358 227.841C401.743 227.498 401.055 227.303 400.35 227.274C399.646 227.245 398.944 227.381 398.302 227.673L387.126 234.125C386.086 234.725 386.217 235.774 387.418 236.467C388.033 236.81 388.721 237.004 389.426 237.034C390.13 237.063 390.832 236.926 391.474 236.635V236.635Z" fill="white"/>
<path opacity="0.15" d="M370.851 248.542L382.027 242.09C383.067 241.489 382.936 240.441 381.736 239.747C381.12 239.404 380.432 239.21 379.727 239.181C379.023 239.152 378.321 239.288 377.679 239.579L366.503 246.031C365.463 246.632 365.594 247.68 366.795 248.374C367.411 248.717 368.098 248.911 368.803 248.94C369.508 248.969 370.209 248.833 370.851 248.542V248.542Z" fill="white"/>
<path opacity="0.15" d="M350.229 260.448L361.404 253.996C362.444 253.396 362.313 252.347 361.113 251.654C360.497 251.311 359.809 251.117 359.104 251.087C358.4 251.058 357.698 251.195 357.056 251.486L345.881 257.938C344.841 258.538 344.971 259.587 346.172 260.28C346.788 260.623 347.476 260.818 348.18 260.847C348.885 260.876 349.586 260.74 350.229 260.448V260.448Z" fill="white"/>
<path opacity="0.15" d="M329.606 272.355L340.781 265.903C341.821 265.302 341.691 264.254 340.49 263.561C339.874 263.217 339.186 263.023 338.482 262.994C337.777 262.965 337.075 263.101 336.433 263.392L325.258 269.845C324.218 270.445 324.348 271.494 325.549 272.187C326.165 272.53 326.853 272.724 327.557 272.753C328.262 272.783 328.963 272.646 329.606 272.355V272.355Z" fill="white"/>
</g>
<path d="M266.345 228.724L267.517 228.571C267.648 228.476 267.784 228.387 267.924 228.307L358.442 176.046C360.781 174.696 364.866 174.865 367.567 176.425L420.373 206.912C420.993 207.254 421.541 207.712 421.986 208.263L422.607 208.081V209.907L422.602 209.908C422.568 210.393 422.404 210.86 422.127 211.26C421.85 211.66 421.47 211.978 421.028 212.18L330.51 264.441C328.172 265.791 324.086 265.622 321.386 264.063L268.579 233.575C267.07 232.704 266.315 231.583 266.348 230.528L266.345 230.528V228.724Z" fill="#A3F5FE"/>
<path d="M330.51 262.608L421.028 210.348C423.367 208.998 423.074 206.639 420.373 205.08L367.567 174.592C364.866 173.033 360.781 172.863 358.442 174.214L267.924 226.474C265.585 227.825 265.879 230.183 268.579 231.742L321.386 262.23C324.086 263.789 328.172 263.959 330.51 262.608Z" fill="#42E8E0"/>
<path d="M330.51 262.608L421.028 210.348C423.367 208.998 423.074 206.639 420.373 205.08L367.567 174.592C364.866 173.033 360.781 172.863 358.442 174.214L267.924 226.474C265.585 227.825 265.879 230.183 268.579 231.742L321.386 262.23C324.086 263.789 328.172 263.959 330.51 262.608Z" fill="url(#paint9_radial)"/>
<path opacity="0.7" d="M315.905 259.066L414.892 201.915L404.384 195.849L305.397 252.999L315.905 259.066Z" fill="#453C9E"/>
<path d="M421.028 209.223L330.51 261.484C328.172 262.834 324.086 262.665 321.386 261.106L268.579 230.618C267.574 230.13 266.8 229.266 266.425 228.212C266.103 229.398 266.837 230.736 268.579 231.742L321.386 262.23C324.086 263.789 328.172 263.959 330.51 262.608L421.028 210.348C421.573 210.12 422.021 209.71 422.294 209.187C422.568 208.664 422.65 208.062 422.527 207.485C422.405 207.859 422.209 208.206 421.952 208.504C421.694 208.803 421.381 209.047 421.028 209.223Z" fill="white"/>
<path d="M317.463 233.869L347.266 216.663L339.993 212.464L310.19 229.67L317.463 233.869Z" fill="white"/>
<g opacity="0.15">
<path opacity="0.15" d="M147.657 222.871L147.75 231.056L147.755 231.053C147.755 231.116 147.773 231.178 147.807 231.23C147.841 231.283 147.89 231.325 147.948 231.35L237.347 281.752C237.528 281.832 237.724 281.868 237.92 281.858C238.117 281.848 238.308 281.791 238.479 281.694L252.922 273.157C252.988 273.125 253.045 273.079 253.091 273.023C253.137 272.967 253.17 272.901 253.188 272.831L253.191 272.832L253.19 272.825C253.192 272.817 253.19 272.809 253.19 272.8L253.097 264.532L246.09 268.608L163.597 222.1C163.417 222.021 163.221 221.985 163.025 221.995C162.828 222.005 162.637 222.061 162.466 222.159L157.509 225.089L147.657 222.871Z" fill="url(#paint10_linear)"/>
<path opacity="0.15" d="M163.502 213.873L252.902 264.275C253.194 264.44 253.16 264.733 252.827 264.93L238.383 273.467C238.213 273.565 238.021 273.621 237.825 273.631C237.628 273.641 237.432 273.605 237.252 273.525L147.852 223.124C147.56 222.959 147.594 222.666 147.927 222.469L162.371 213.932C162.541 213.834 162.733 213.778 162.929 213.768C163.126 213.758 163.322 213.794 163.502 213.873V213.873Z" fill="url(#paint11_linear)"/>
</g>
<g opacity="0.2">
<path opacity="0.2" d="M242.215 164.544C241.388 154.871 233.591 143.688 224.8 139.568C220.396 137.504 216.578 137.604 213.968 139.433L213.968 139.432L211.243 141.355L212.083 141.363C210.583 143.838 209.981 146.755 210.379 149.622C211.206 159.296 219.004 170.478 227.795 174.599C230.258 175.901 233.078 176.369 235.83 175.932L235.831 176.706L238.597 174.754L238.631 174.73L238.743 174.651L238.736 174.65C241.264 172.805 242.622 169.302 242.215 164.544Z" fill="#9FFFF8"/>
<path opacity="0.2" d="M239.46 166.489C240.287 176.162 233.831 180.664 225.04 176.543C216.249 172.423 208.451 161.24 207.624 151.567C206.797 141.893 213.253 137.392 222.045 141.512C230.836 145.633 238.633 156.815 239.46 166.489Z" fill="#42E8E0"/>
<path opacity="0.2" d="M230.283 176.097C228.368 176.045 226.489 175.575 224.775 174.72C216.947 171.05 209.979 161.058 209.243 152.446C208.882 148.226 210.047 144.952 212.523 143.225C215 141.499 218.475 141.538 222.31 143.334C230.138 147.004 237.106 156.997 237.841 165.61C238.202 169.83 237.038 173.104 234.561 174.831C233.301 175.686 231.806 176.129 230.283 176.097V176.097ZM216.804 142.394C215.369 142.362 213.96 142.778 212.772 143.583C210.429 145.216 209.33 148.351 209.677 152.409C210.401 160.883 217.257 170.715 224.96 174.326C228.647 176.054 231.968 176.107 234.313 174.473C236.656 172.839 237.755 169.704 237.408 165.647C236.683 157.171 229.828 147.339 222.125 143.729C220.47 142.902 218.654 142.446 216.804 142.394V142.394Z" fill="#18B2A3"/>
</g>
<path d="M221.002 131.019C230.421 128.663 240.22 119.186 242.889 109.851C244.226 105.174 243.52 101.421 241.298 99.1358L241.299 99.1356L238.967 96.7518L239.094 97.582C236.411 96.4946 233.435 96.3646 230.668 97.2139C221.249 99.5698 211.45 109.047 208.781 118.382C207.887 121.021 207.874 123.879 208.743 126.527L207.979 126.652L210.347 129.071L210.376 129.101L210.472 129.199V129.192C212.695 131.394 216.37 132.178 221.002 131.019Z" fill="#A3F5FE"/>
<path d="M232.119 120.641C240.666 112.374 243.726 101.672 238.953 96.7375C234.18 91.8027 223.382 94.5039 214.835 102.771C206.288 111.038 203.228 121.74 208.001 126.674C212.774 131.609 223.572 128.908 232.119 120.641Z" fill="#A7F4FE"/>
<path d="M215.612 127.352C214.514 127.405 213.416 127.233 212.387 126.845C211.358 126.458 210.419 125.864 209.629 125.099C207.53 122.929 207.016 119.492 208.18 115.42C210.557 107.108 219.313 98.6391 227.7 96.5414C231.808 95.5121 235.227 96.142 237.325 98.3129C239.423 100.483 239.938 103.92 238.773 107.992C236.397 116.303 227.641 124.772 219.254 126.871C218.064 127.179 216.841 127.341 215.612 127.352ZM231.34 96.4946C230.147 96.5062 228.96 96.6636 227.805 96.9633C219.553 99.0278 210.937 107.361 208.599 115.54C207.479 119.456 207.956 122.744 209.942 124.796C211.927 126.85 215.197 127.436 219.148 126.449C227.4 124.383 236.017 116.05 238.354 107.873C239.475 103.957 238.998 100.668 237.012 98.6157C236.262 97.8938 235.371 97.3331 234.396 96.9683C233.42 96.6035 232.38 96.4423 231.34 96.4946V96.4946Z" fill="white"/>
<path d="M147.548 214.89L147.641 223.075L147.646 223.072C147.646 223.135 147.664 223.196 147.698 223.249C147.733 223.302 147.781 223.344 147.839 223.369L237.239 273.771C237.419 273.851 237.615 273.887 237.811 273.877C238.008 273.866 238.199 273.81 238.37 273.713L252.814 265.175C252.879 265.144 252.937 265.098 252.983 265.042C253.028 264.986 253.061 264.92 253.079 264.85L253.082 264.851V264.844C253.083 264.836 253.081 264.828 253.082 264.819L252.989 256.551L245.982 260.627L163.489 214.119C163.308 214.04 163.112 214.004 162.916 214.014C162.719 214.024 162.528 214.08 162.357 214.178L157.4 217.108L147.548 214.89Z" fill="url(#paint12_linear)"/>
<path d="M147.548 214.89L147.641 223.075L147.646 223.072C147.646 223.135 147.664 223.196 147.698 223.249C147.733 223.302 147.781 223.344 147.839 223.369L237.239 273.771C237.419 273.851 237.615 273.887 237.811 273.877C238.008 273.866 238.199 273.81 238.37 273.713L252.814 265.175C252.879 265.144 252.937 265.098 252.983 265.042C253.028 264.986 253.061 264.92 253.079 264.85L253.082 264.851V264.844C253.083 264.836 253.081 264.828 253.082 264.819L252.989 256.551L245.982 260.627L163.489 214.119C163.308 214.04 163.112 214.004 162.916 214.014C162.719 214.024 162.528 214.08 162.357 214.178L157.4 217.108L147.548 214.89Z" fill="url(#paint13_radial)"/>
<path d="M163.393 205.892L252.793 256.294C253.085 256.459 253.051 256.752 252.718 256.949L238.275 265.486C238.104 265.583 237.912 265.64 237.716 265.65C237.519 265.66 237.323 265.624 237.143 265.544L147.743 215.142C147.452 214.978 147.485 214.685 147.818 214.488L162.262 205.951C162.433 205.853 162.624 205.797 162.82 205.787C163.017 205.777 163.213 205.813 163.393 205.892V205.892Z" fill="url(#paint14_linear)"/>
<path d="M252.793 256.294L252.544 256.154L238.275 264.588C238.104 264.686 237.912 264.742 237.716 264.752C237.519 264.762 237.323 264.726 237.143 264.646L147.993 214.385L147.818 214.488C147.485 214.685 147.452 214.978 147.744 215.142L237.143 265.544C237.323 265.624 237.519 265.66 237.716 265.65C237.912 265.64 238.104 265.583 238.275 265.486L252.718 256.949C253.051 256.752 253.085 256.459 252.793 256.294Z" fill="white"/>
<path opacity="0.6" d="M166.706 218.176L236.95 257.046C237.469 254.19 238.248 251.388 239.277 248.674L169.153 209.139C168.04 212.063 167.22 215.09 166.706 218.176V218.176Z" fill="#24126A"/>
<path d="M160.345 210.639L244.644 258.165C244.844 258.278 244.821 258.478 244.593 258.613L240.965 260.758C240.848 260.824 240.717 260.863 240.583 260.87C240.448 260.876 240.314 260.852 240.191 260.798L155.892 213.271C155.693 213.159 155.715 212.959 155.943 212.824L159.572 210.679C159.689 210.613 159.819 210.574 159.954 210.567C160.088 210.56 160.222 210.585 160.345 210.639V210.639Z" fill="#24126A"/>
<path d="M155.892 213.271L157.606 214.238L159.565 213.08C159.682 213.013 159.813 212.975 159.947 212.968C160.081 212.961 160.215 212.986 160.339 213.04L242.923 259.6L244.593 258.613C244.821 258.478 244.844 258.278 244.644 258.165L160.345 210.639C160.222 210.585 160.088 210.56 159.954 210.567C159.819 210.574 159.689 210.613 159.572 210.679L155.943 212.824C155.715 212.959 155.693 213.159 155.892 213.271Z" fill="#453C9E"/>
<path opacity="0.7" d="M371.302 126.088L301.172 86.5494V86.5495C301.3 99.0601 292.672 114.363 281.902 120.729L186.098 177.357C173.438 184.84 163.297 202.827 163.448 217.532L233.578 257.071C233.428 242.365 243.568 224.378 256.228 216.895L352.033 160.267C362.803 153.901 371.43 138.598 371.302 126.088V126.088Z" fill="url(#paint15_linear)"/>
<path d="M371.302 126.088L301.172 86.5494V86.5495C301.3 99.0601 292.672 114.363 281.902 120.729L186.098 177.357C173.438 184.84 163.297 202.827 163.448 217.532L233.578 257.071C233.428 242.365 243.568 224.378 256.228 216.895L352.033 160.267C362.803 153.901 371.43 138.598 371.302 126.088V126.088Z" fill="url(#paint16_radial)"/>
<path opacity="0.8" d="M163.448 217.533L233.578 257.071C233.572 256.425 233.592 255.772 233.624 255.115L233.619 255.113L163.494 215.581C163.461 216.237 163.441 216.889 163.448 217.533Z" fill="#453C9E"/>
<path d="M278.973 176.015L292.791 183.805L291.473 184.584L277.655 176.794L278.973 176.015Z" fill="white"/>
<path d="M271.887 172.02L276.862 174.825L275.544 175.604L270.569 172.799L271.887 172.02Z" fill="white"/>
<path d="M266.395 168.923L269.776 170.83L268.458 171.608L265.077 169.702L266.395 168.923Z" fill="white"/>
<path d="M288.272 177.781L295.802 182.026L294.484 182.805L286.955 178.56L288.272 177.781Z" fill="white"/>
<path d="M276.934 171.389L286.161 176.591L284.843 177.37L275.617 172.168L276.934 171.389Z" fill="white"/>
<path d="M271.442 168.293L274.823 170.199L273.505 170.978L270.125 169.072L271.442 168.293Z" fill="white"/>
<path d="M266.216 165.346L269.597 167.252L268.279 168.031L264.899 166.125L266.216 165.346Z" fill="white"/>
<path d="M293.364 177.175L298.812 180.247L297.494 181.026L292.046 177.954L293.364 177.175Z" fill="white"/>
<path d="M289.391 174.936L291.253 175.985L289.935 176.764L288.073 175.714L289.391 174.936Z" fill="white"/>
<path d="M283.899 171.839L287.28 173.745L285.962 174.524L282.582 172.618L283.899 171.839Z" fill="white"/>
<path d="M281.715 167.131L301.822 178.467L300.504 179.246L280.397 167.91L281.715 167.131Z" fill="white"/>
<path d="M274.629 163.136L279.604 165.941L278.286 166.72L273.311 163.915L274.629 163.136Z" fill="white"/>
<path d="M299.385 173.617L304.832 176.688L303.515 177.467L298.067 174.396L299.385 173.617Z" fill="white"/>
<path d="M286.6 166.409L297.274 172.427L295.956 173.205L285.282 167.188L286.6 166.409Z" fill="white"/>
<path d="M281.108 163.313L284.489 165.219L283.171 165.998L279.79 164.092L281.108 163.313Z" fill="white"/>
<path d="M296.697 168.625L307.843 174.909L306.525 175.688L295.379 169.404L296.697 168.625Z" fill="white"/>
<path d="M286.525 162.89L294.585 167.435L293.268 168.213L285.207 163.669L286.525 162.89Z" fill="white"/>
<path d="M278.966 158.629L284.414 161.7L283.096 162.479L277.648 159.408L278.966 158.629Z" fill="white"/>
<path d="M307.088 171.007L310.853 173.129L309.535 173.908L305.771 171.786L307.088 171.007Z" fill="white"/>
<path d="M300.002 167.012L304.977 169.817L303.66 170.596L298.684 167.791L300.002 167.012Z" fill="white"/>
<path d="M289.875 161.302L297.891 165.822L296.573 166.601L288.557 162.081L289.875 161.302Z" fill="white"/>
<path d="M302.332 164.849L313.863 171.35L312.546 172.129L301.014 165.627L302.332 164.849Z" fill="white"/>
<path d="M289.416 157.567L300.22 163.658L298.903 164.437L288.098 158.346L289.416 157.567Z" fill="white"/>
<path d="M283.924 154.471L287.305 156.377L285.987 157.156L282.606 155.25L283.924 154.471Z" fill="white"/>
<path d="M278.653 151.499L282.034 153.405L280.716 154.184L277.336 152.278L278.653 151.499Z" fill="white"/>
<path d="M309.965 165.675L316.874 169.571L315.556 170.35L308.647 166.454L309.965 165.675Z" fill="white"/>
<path d="M250.945 160.213L241.363 154.811L240.046 155.59L249.627 160.992L250.945 160.213Z" fill="white"/>
<path d="M251.903 157.277L244.374 153.032L243.056 153.811L250.585 158.056L251.903 157.277Z" fill="white"/>
<path d="M252.831 154.324L247.384 151.252L246.066 152.031L251.514 155.103L252.831 154.324Z" fill="white"/>
<path d="M258.318 153.941L250.394 149.473L249.076 150.252L257 154.72L258.318 153.941Z" fill="white"/>
<path d="M258.852 150.765L253.405 147.694L252.087 148.473L257.534 151.544L258.852 150.765Z" fill="white"/>
<path d="M263.324 149.81L256.415 145.914L255.097 146.693L262.006 150.589L263.324 149.81Z" fill="white"/>
<path d="M263.19 146.258L259.425 144.135L258.107 144.914L261.872 147.037L263.19 146.258Z" fill="white"/>
<path d="M269.73 146.468L262.435 142.356L261.118 143.135L268.412 147.247L269.73 146.468Z" fill="white"/>
<path d="M272.355 144.472L265.446 140.577L264.128 141.356L271.037 145.251L272.355 144.472Z" fill="white"/>
<path d="M304.916 162.829L307.853 164.485L306.536 165.264L303.598 163.608L304.916 162.829Z" fill="white"/>
<path d="M296.191 157.91L302.804 161.639L301.487 162.418L294.873 158.689L296.191 157.91Z" fill="white"/>
<path d="M304.313 144.371L315.474 150.663L314.156 151.443L302.995 145.15L304.313 144.371Z" fill="white"/>
<path d="M296.669 140.062L301.065 142.54L299.747 143.319L295.351 140.841L296.669 140.062Z" fill="white"/>
<path d="M249.932 193.181L263.75 200.971L262.432 201.75L248.614 193.96L249.932 193.181Z" fill="white"/>
<path d="M242.845 189.186L247.82 191.99L246.503 192.769L241.527 189.965L242.845 189.186Z" fill="white"/>
<path d="M237.353 186.089L240.734 187.995L239.416 188.774L236.036 186.868L237.353 186.089Z" fill="white"/>
<path d="M259.231 194.947L266.76 199.192L265.442 199.971L257.913 195.726L259.231 194.947Z" fill="white"/>
<path d="M247.893 188.555L257.12 193.757L255.802 194.536L246.575 189.334L247.893 188.555Z" fill="white"/>
<path d="M242.401 185.459L245.782 187.365L244.464 188.144L241.083 186.238L242.401 185.459Z" fill="white"/>
<path d="M237.175 182.512L240.556 184.418L239.238 185.197L235.857 183.291L237.175 182.512Z" fill="white"/>
<path d="M264.323 194.341L269.77 197.413L268.453 198.191L263.005 195.12L264.323 194.341Z" fill="white"/>
<path d="M260.35 192.101L262.212 193.151L260.894 193.93L259.032 192.88L260.35 192.101Z" fill="white"/>
<path d="M254.858 189.005L258.239 190.911L256.921 191.69L253.54 189.784L254.858 189.005Z" fill="white"/>
<path d="M252.673 184.297L272.781 195.633L271.463 196.412L251.356 185.076L252.673 184.297Z" fill="white"/>
<path d="M245.587 180.302L250.562 183.107L249.244 183.886L244.269 181.081L245.587 180.302Z" fill="white"/>
<path d="M221.903 177.379L212.322 171.977L211.004 172.756L220.585 178.158L221.903 177.379Z" fill="white"/>
<path d="M222.861 174.443L215.332 170.198L214.014 170.977L221.544 175.221L222.861 174.443Z" fill="white"/>
<path d="M223.79 171.49L218.342 168.418L217.025 169.197L222.472 172.269L223.79 171.49Z" fill="white"/>
<path d="M229.277 171.106L221.353 166.639L220.035 167.418L227.959 171.885L229.277 171.106Z" fill="white"/>
<g opacity="0.1">
<path opacity="0.1" d="M337.789 141.613C337.789 131.904 330.973 120.098 322.565 115.243C318.353 112.812 314.54 112.586 311.784 114.187V114.186L308.906 115.87L309.742 115.948C308.036 118.287 307.188 121.142 307.34 124.033C307.34 133.742 314.156 145.548 322.565 150.402C324.908 151.91 327.677 152.616 330.457 152.415L330.392 153.187L333.314 151.477L333.35 151.456L333.469 151.387L333.462 151.385C336.138 149.762 337.789 146.388 337.789 141.613Z" fill="#9FFFF8"/>
<path opacity="0.1" d="M330.42 153.171C336.365 149.738 336.365 138.607 330.419 128.31C324.473 118.012 314.834 112.447 308.888 115.88C302.943 119.312 302.943 130.443 308.889 140.741C314.835 151.039 324.474 156.604 330.42 153.171Z" fill="#42E8E0"/>
</g>
<path d="M337.789 141.613C337.789 131.904 330.973 120.098 322.565 115.243C318.353 112.812 314.54 112.586 311.784 114.187V114.186L308.906 115.87L309.742 115.948C308.036 118.287 307.188 121.142 307.34 124.033C307.34 133.742 314.156 145.548 322.565 150.402C324.908 151.91 327.677 152.616 330.457 152.415L330.392 153.187L333.314 151.477L333.35 151.456L333.469 151.387L333.462 151.385C336.138 149.762 337.789 146.388 337.789 141.613Z" fill="#A3F5FE"/>
<path d="M330.42 153.171C336.365 149.738 336.365 138.607 330.419 128.31C324.473 118.012 314.834 112.447 308.888 115.88C302.943 119.312 302.943 130.443 308.889 140.741C314.835 151.039 324.474 156.604 330.42 153.171Z" fill="#A7F4FE"/>
<path d="M325.778 152.453C323.57 152.371 321.421 151.714 319.545 150.545C311.924 146.146 305.725 135.409 305.725 126.61C305.725 122.3 307.19 119.08 309.849 117.545C312.509 116.008 316.031 116.352 319.762 118.505C327.383 122.905 333.582 133.642 333.582 142.441C333.582 146.751 332.118 149.97 329.457 151.506C328.336 152.142 327.067 152.469 325.778 152.453ZM313.532 117.035C312.319 117.018 311.123 117.324 310.067 117.922C307.548 119.377 306.161 122.462 306.161 126.61C306.161 135.27 312.262 145.838 319.762 150.168C323.356 152.243 326.721 152.581 329.24 151.129C331.759 149.674 333.147 146.589 333.147 142.441C333.147 133.781 327.045 123.212 319.545 118.882C317.736 117.754 315.663 117.117 313.532 117.035Z" fill="white"/>
<path d="M195.651 226.75C195.651 217.042 188.835 205.236 180.426 200.381C176.214 197.949 172.402 197.724 169.645 199.324V199.323L166.767 201.007L167.603 201.086C165.897 203.425 165.049 206.28 165.202 209.17C165.202 218.879 172.018 230.685 180.426 235.54C182.769 237.047 185.539 237.754 188.318 237.553L188.254 238.325L191.176 236.615L191.212 236.593L191.33 236.524L191.324 236.523C194 234.9 195.651 231.525 195.651 226.75Z" fill="#A3F5FE"/>
<path d="M188.281 238.309C194.227 234.876 194.226 223.745 188.281 213.447C182.335 203.15 172.695 197.585 166.75 201.017C160.804 204.45 160.805 215.581 166.75 225.879C172.696 236.176 182.336 241.742 188.281 238.309Z" fill="#A7F4FE"/>
<path d="M183.406 236.914C181.28 236.835 179.212 236.202 177.407 235.078C170.076 230.845 164.111 220.515 164.111 212.05C164.111 207.902 165.522 204.803 168.082 203.325C170.644 201.845 174.033 202.174 177.624 204.249C184.956 208.482 190.92 218.812 190.92 227.277C190.92 231.425 189.51 234.523 186.949 236.001C185.87 236.615 184.647 236.929 183.406 236.914V236.914ZM171.627 202.849C170.462 202.833 169.314 203.127 168.3 203.702C165.88 205.099 164.547 208.064 164.547 212.05C164.547 220.377 170.414 230.538 177.624 234.701C181.075 236.694 184.31 237.022 186.731 235.625C189.151 234.227 190.484 231.263 190.484 227.277C190.484 218.951 184.618 208.79 177.407 204.625C175.668 203.54 173.675 202.928 171.627 202.849V202.849Z" fill="white"/>
<g opacity="0.2">
<path opacity="0.2" d="M195.651 277.017C195.651 267.308 188.835 255.502 180.426 250.648C176.214 248.216 172.402 247.99 169.645 249.591V249.59L166.767 251.274L167.603 251.352C165.897 253.691 165.049 256.546 165.202 259.437C165.202 269.146 172.018 280.952 180.426 285.806C182.769 287.314 185.539 288.021 188.318 287.819L188.254 288.591L191.176 286.881L191.212 286.86L191.33 286.791L191.324 286.789C194 285.166 195.651 281.792 195.651 277.017Z" fill="#9FFFF8"/>
<path opacity="0.2" d="M188.281 288.575C194.227 285.143 194.226 274.012 188.281 263.714C182.335 253.416 172.695 247.851 166.75 251.284C160.804 254.717 160.805 265.847 166.75 276.145C172.696 286.443 182.336 292.008 188.281 288.575Z" fill="#42E8E0"/>
<path opacity="0.2" d="M183.406 287.18C181.28 287.102 179.212 286.469 177.407 285.344C170.076 281.111 164.111 270.781 164.111 262.316C164.111 258.167 165.521 255.07 168.082 253.591C170.643 252.112 174.032 252.441 177.624 254.515C184.956 258.747 190.92 269.078 190.92 277.543C190.92 281.692 189.51 284.789 186.949 286.268C185.87 286.881 184.647 287.196 183.406 287.18ZM171.627 253.116C170.462 253.1 169.314 253.394 168.3 253.968C165.88 255.366 164.547 258.329 164.547 262.316C164.547 270.642 170.414 280.803 177.624 284.967C181.075 286.96 184.31 287.289 186.731 285.891C189.151 284.494 190.484 281.53 190.484 277.543C190.484 269.216 184.618 259.055 177.407 254.892C175.668 253.807 173.675 253.194 171.627 253.116V253.116Z" fill="#18B2A3"/>
</g>
</g>
<defs>
<radialGradient id="paint0_radial" cx="0" cy="0" r="1" gradientUnits="userSpaceOnUse" gradientTransform="translate(420.22 371.721) scale(113.122)">
<stop stop-color="#53A5F8"/>
<stop offset="0.6899" stop-color="#79CEFC"/>
<stop offset="1" stop-color="#8CE2FE"/>
</radialGradient>
<radialGradient id="paint1_radial" cx="0" cy="0" r="1" gradientUnits="userSpaceOnUse" gradientTransform="translate(454.043 114.511) scale(210.195)">
<stop stop-color="#3E068D"/>
<stop offset="1" stop-color="#29013E"/>
</radialGradient>
<radialGradient id="paint2_radial" cx="0" cy="0" r="1" gradientUnits="userSpaceOnUse" gradientTransform="translate(421.763 335.178) scale(210.196)">
<stop stop-color="#8CE2FE"/>
<stop offset="0.05599" stop-color="#79CEFC"/>
<stop offset="0.18056" stop-color="#53A5F8"/>
<stop offset="0.26999" stop-color="#4B84D2"/>
<stop offset="0.39268" stop-color="#415DA6"/>
<stop offset="0.51648" stop-color="#393C81"/>
<stop offset="0.63948" stop-color="#322364"/>
<stop offset="0.76154" stop-color="#2E104F"/>
<stop offset="0.8822" stop-color="#2B0643"/>
<stop offset="1" stop-color="#2A023F"/>
</radialGradient>
<radialGradient id="paint3_radial" cx="0" cy="0" r="1" gradientUnits="userSpaceOnUse" gradientTransform="translate(212029 106676) rotate(180) scale(20990 29566)">
<stop stop-color="#53A5F8"/>
<stop offset="0.6899" stop-color="#79CEFC"/>
<stop offset="1" stop-color="#8CE2FE"/>
</radialGradient>
<radialGradient id="paint4_radial" cx="0" cy="0" r="1" gradientUnits="userSpaceOnUse" gradientTransform="translate(199441 38520.7) rotate(180) scale(37537.1 53651.5)">
<stop stop-color="#3E068D"/>
<stop offset="1" stop-color="#29013E"/>
</radialGradient>
<radialGradient id="paint5_radial" cx="0" cy="0" r="1" gradientUnits="userSpaceOnUse" gradientTransform="translate(203848 94845) rotate(180) scale(37537.3 53651.7)">
<stop stop-color="#8CE2FE"/>
<stop offset="0.05599" stop-color="#79CEFC"/>
<stop offset="0.18056" stop-color="#53A5F8"/>
<stop offset="0.26999" stop-color="#4B84D2"/>
<stop offset="0.39268" stop-color="#415DA6"/>
<stop offset="0.51648" stop-color="#393C81"/>
<stop offset="0.63948" stop-color="#322364"/>
<stop offset="0.76154" stop-color="#2E104F"/>
<stop offset="0.8822" stop-color="#2B0643"/>
<stop offset="1" stop-color="#2A023F"/>
</radialGradient>
<radialGradient id="paint6_radial" cx="0" cy="0" r="1" gradientUnits="userSpaceOnUse" gradientTransform="translate(180.116 184.278) scale(180.116)">
<stop stop-color="#53A5F8"/>
<stop offset="0.3364" stop-color="#446AB6"/>
<stop offset="0.79208" stop-color="#312061"/>
<stop offset="1" stop-color="#2A023F"/>
</radialGradient>
<radialGradient id="paint7_radial" cx="0" cy="0" r="1" gradientUnits="userSpaceOnUse" gradientTransform="translate(147194 79399.2) scale(64883.7)">
<stop stop-color="#53A5F8"/>
<stop offset="0.3364" stop-color="#446AB6"/>
<stop offset="0.79208" stop-color="#312061"/>
<stop offset="1" stop-color="#2A023F"/>
</radialGradient>
<radialGradient id="paint8_radial" cx="0" cy="0" r="1" gradientUnits="userSpaceOnUse" gradientTransform="translate(69007.3 22601.9) scale(58200.1 104667)">
<stop stop-color="#3E068D"/>
<stop offset="1" stop-color="#29013E"/>
</radialGradient>
<radialGradient id="paint9_radial" cx="0" cy="0" r="1" gradientUnits="userSpaceOnUse" gradientTransform="translate(373.789 192.291) scale(244.667)">
<stop stop-color="#7FDFFE"/>
<stop offset="0.09497" stop-color="#74BAE9"/>
<stop offset="0.19799" stop-color="#6A9AD7"/>
<stop offset="0.30984" stop-color="#617FC9"/>
<stop offset="0.43176" stop-color="#5B6BBD"/>
<stop offset="0.56883" stop-color="#565CB5"/>
<stop offset="0.73351" stop-color="#5454B0"/>
<stop offset="1" stop-color="#5351AF"/>
</radialGradient>
<linearGradient id="paint10_linear" x1="256.828" y1="250.414" x2="160.009" y2="253.012" gradientUnits="userSpaceOnUse">
<stop stop-color="#5761D7"/>
<stop offset="0.03979" stop-color="#5C66D9"/>
<stop offset="0.0867" stop-color="#6A73DF"/>
<stop offset="0.13721" stop-color="#8289E8"/>
<stop offset="0.1899" stop-color="#A3A7F5"/>
<stop offset="0.22368" stop-color="#BCBEFF"/>
</linearGradient>
<linearGradient id="paint11_linear" x1="227.701" y1="200.518" x2="190.943" y2="258.609" gradientUnits="userSpaceOnUse">
<stop stop-color="#C0BFF6"/>
<stop offset="0.29376" stop-color="#C5C4F7"/>
<stop offset="0.63992" stop-color="#D3D2F9"/>
<stop offset="1" stop-color="#E9E9FD"/>
</linearGradient>
<linearGradient id="paint12_linear" x1="368784" y1="61169.5" x2="370684" y2="55136" gradientUnits="userSpaceOnUse">
<stop stop-color="#5761D7"/>
<stop offset="0.03979" stop-color="#5C66D9"/>
<stop offset="0.0867" stop-color="#6A73DF"/>
<stop offset="0.13721" stop-color="#8289E8"/>
<stop offset="0.1899" stop-color="#A3A7F5"/>
<stop offset="0.22368" stop-color="#BCBEFF"/>
</linearGradient>
<radialGradient id="paint13_radial" cx="0" cy="0" r="1" gradientUnits="userSpaceOnUse" gradientTransform="translate(-133202 -341688) rotate(-120.583) scale(8245.06 4677.17)">
<stop stop-color="#7FDFFE"/>
<stop offset="0.09497" stop-color="#74BAE9"/>
<stop offset="0.19799" stop-color="#6A9AD7"/>
<stop offset="0.30984" stop-color="#617FC9"/>
<stop offset="0.43176" stop-color="#5B6BBD"/>
<stop offset="0.56883" stop-color="#565CB5"/>
<stop offset="0.73351" stop-color="#5454B0"/>
<stop offset="1" stop-color="#5351AF"/>
</radialGradient>
<linearGradient id="paint14_linear" x1="374572" y1="61180" x2="373334" y2="56916.9" gradientUnits="userSpaceOnUse">
<stop stop-color="#C0BFF6"/>
<stop offset="0.29376" stop-color="#C5C4F7"/>
<stop offset="0.63992" stop-color="#D3D2F9"/>
<stop offset="1" stop-color="#E9E9FD"/>
</linearGradient>
<linearGradient id="paint15_linear" x1="315.39" y1="87.7124" x2="215.679" y2="260.573" gradientUnits="userSpaceOnUse">
<stop stop-color="#C0BFF6"/>
<stop offset="0.11724" stop-color="#D0CFF9"/>
<stop offset="0.26269" stop-color="#E9E9FD"/>
<stop offset="0.51435" stop-color="#C0BFF6"/>
<stop offset="0.62174" stop-color="#D0CFF9"/>
<stop offset="0.75497" stop-color="#E9E9FD"/>
<stop offset="1" stop-color="#C0BFF6"/>
</linearGradient>
<radialGradient id="paint16_radial" cx="0" cy="0" r="1" gradientUnits="userSpaceOnUse" gradientTransform="translate(-200395 -722769) rotate(-120.583) scale(42329.7 34726.3)">
<stop stop-color="#7FDFFE"/>
<stop offset="0.09497" stop-color="#74BAE9"/>
<stop offset="0.19799" stop-color="#6A9AD7"/>
<stop offset="0.30984" stop-color="#617FC9"/>
<stop offset="0.43176" stop-color="#5B6BBD"/>
<stop offset="0.56883" stop-color="#565CB5"/>
<stop offset="0.73351" stop-color="#5454B0"/>
<stop offset="1" stop-color="#5351AF"/>
</radialGradient>
<clipPath id="clip0">
<rect width="560.785" height="385.926" fill="white"/>
</clipPath>
</defs>
</svg>
