<svg xmlns="http://www.w3.org/2000/svg" xmlns:xlink="http://www.w3.org/1999/xlink" viewBox="0 0 789.39175 426.74796"><defs><style>.cls-1{fill:none;}.cls-2{isolation:isolate;}.cls-3{clip-path:url(#clip-path);}.cls-4,.cls-5,.cls-7,.cls-8,.cls-9{opacity:0.68;}.cls-4,.cls-5,.cls-6,.cls-7,.cls-8,.cls-9{mix-blend-mode:screen;}.cls-4{fill:url(#radial-gradient);}.cls-5{fill:url(#radial-gradient-2);}.cls-6{fill:url(#radial-gradient-3);}.cls-7{fill:url(#radial-gradient-4);}.cls-8{fill:url(#radial-gradient-5);}.cls-9{fill:url(#radial-gradient-6);}</style><clipPath id="clip-path" transform="translate(236.58537 105.5402)"><rect class="cls-1" width="300" height="200"/></clipPath><radialGradient id="radial-gradient" cx="247.17376" cy="98.1402" r="14.96286" gradientTransform="matrix(0.773, -0.6344, 0.6344, 0.773, -61.0088, 250.5648)" gradientUnits="userSpaceOnUse"><stop offset="0" stop-color="#2951e2"/><stop offset="0.06652" stop-color="#2140b4"/><stop offset="0.13804" stop-color="#19318a"/><stop offset="0.21574" stop-color="#122465"/><stop offset="0.29874" stop-color="#0d1945"/><stop offset="0.38864" stop-color="#08102c"/><stop offset="0.48817" stop-color="#040918"/><stop offset="0.60248" stop-color="#02040a"/><stop offset="0.74459" stop-color="#000102"/><stop offset="1"/></radialGradient><radialGradient id="radial-gradient-2" cx="270.31621" cy="118.63519" r="10.10157" xlink:href="#radial-gradient"/><radialGradient id="radial-gradient-3" cx="259.69111" cy="60.76836" r="159.51114" gradientTransform="matrix(2.47522, 0.00007, -0.00008, 1.33606, -484.6772, 26.62449)" gradientUnits="userSpaceOnUse"><stop offset="0" stop-color="#2948a1"/><stop offset="0.04764" stop-color="#233d89"/><stop offset="0.13187" stop-color="#1a2d65"/><stop offset="0.22367" stop-color="#121f45"/><stop offset="0.32317" stop-color="#0b142c"/><stop offset="0.43331" stop-color="#060b18"/><stop offset="0.55986" stop-color="#03050a"/><stop offset="0.7172" stop-color="#010102"/><stop offset="1"/></radialGradient><radialGradient id="radial-gradient-4" cx="227.78853" cy="-22.55446" r="10.87119" gradientTransform="translate(-93.0602 217.6021) rotate(-30.00073)" xlink:href="#radial-gradient"/><radialGradient id="radial-gradient-5" cx="251.98326" cy="-14.86122" r="10.87119" gradientTransform="translate(-93.0602 217.6021) rotate(-30.00073)" xlink:href="#radial-gradient"/><radialGradient id="radial-gradient-6" cx="247.03325" cy="-26.18665" r="7.00493" gradientTransform="translate(-93.0602 217.6021) rotate(-30.00073)" xlink:href="#radial-gradient"/></defs><title>573  bg[Converted]</title><g class="cls-2"><g id="Layer_1" data-name="Layer 1"><rect x="236.58537" y="105.5402" width="300" height="200"/></g><g id="Layer_13" data-name="Layer 13"><g class="cls-3"><path class="cls-4" d="M203.88279,160.1275a14.96281,14.96281,0,1,1-21.059-2.0733A14.96253,14.96253,0,0,1,203.88279,160.1275Z" transform="translate(236.58537 105.5402)"/><path class="cls-5" d="M231.01609,164.3725a10.10153,10.10153,0,1,1-14.217-1.3996A10.10111,10.10111,0,0,1,231.01609,164.3725Z" transform="translate(236.58537 105.5402)"/><ellipse class="cls-6" cx="158.11062" cy="107.83373" rx="394.83296" ry="213.11189" transform="translate(233.27519 110.56146) rotate(-1.80059)"/><path class="cls-7" d="M102.34189,78.7401a10.87095,10.87095,0,1,1-14.85-3.9789A10.87142,10.87142,0,0,1,102.34189,78.7401Z" transform="translate(236.58537 105.5402)"/><path class="cls-8" d="M127.14119,73.3052a10.87092,10.87092,0,1,1-14.85-3.9791A10.87122,10.87122,0,0,1,127.14119,73.3052Z" transform="translate(236.58537 105.5402)"/><path class="cls-9" d="M113.84359,67.9055a7.00476,7.00476,0,1,1-9.5687-2.564A7.00484,7.00484,0,0,1,113.84359,67.9055Z" transform="translate(236.58537 105.5402)"/></g></g></g></svg>